<svg id="Capa_1" enable-background="new 0 0 409.294 409.294" height="512" viewBox="0 0 409.294 409.294" width="512" xmlns="http://www.w3.org/2000/svg"><path id="path-1_40_" d="m175.412 87.706h58.471v58.471h-58.471z" transform="translate(7 4)"/><path id="path-1_39_" d="m0 0h58.471v58.471h-58.471z" transform="translate(1 1)"/><path id="path-1_38_" d="m0 263.118h58.471v58.471h-58.471z" transform="translate(1 10)"/><path id="path-1_37_" d="m0 350.824h58.471v58.471h-58.471z" transform="translate(1 13)"/><path id="path-1_36_" d="m87.706 350.824h58.471v58.471h-58.471z" transform="translate(4 13)"/><path id="path-1_35_" d="m175.412 350.824h58.471v58.471h-58.471z" transform="translate(7 13)"/><path id="path-1_34_" d="m175.412 263.118h58.471v58.471h-58.471z" transform="translate(7 10)"/><path d="m0 175.412h409.294v58.471h-409.294z"/><path id="path-1_33_" d="m0 87.706h58.471v58.471h-58.471z" transform="translate(1 4)"/><path id="path-1_32_" d="m350.824 0h58.471v58.471h-58.471z" transform="translate(13 1)"/><path id="path-1_31_" d="m350.824 350.824h58.471v58.471h-58.471z" transform="translate(13 13)"/><path id="path-1_30_" d="m263.118 350.824h58.471v58.471h-58.471z" transform="translate(10 13)"/><path id="path-1_29_" d="m350.824 263.118h58.471v58.471h-58.471z" transform="translate(13 10)"/><path id="path-1_28_" d="m350.824 87.706h58.471v58.471h-58.471z" transform="translate(13 4)"/><path id="path-1_27_" d="m87.706 0h58.471v58.471h-58.471z" transform="translate(4 1)"/><path id="path-1_26_" d="m175.412 0h58.471v58.471h-58.471z" transform="translate(7 1)"/><path id="path-1_25_" d="m263.118 0h58.471v58.471h-58.471z" transform="translate(10 1)"/></svg>