<svg id="Capa_1" enable-background="new 0 0 409.294 409.294" height="512" viewBox="0 0 409.294 409.294" width="512" xmlns="http://www.w3.org/2000/svg"><path id="path-1_318_" d="m263.118 175.412h58.471v58.471h-58.471z" transform="translate(10 7)"/><path id="path-1_317_" d="m350.824 0h58.471v58.471h-58.471z" transform="translate(13 1)"/><path id="path-1_316_" d="m87.706 0h58.471v58.471h-58.471z" transform="translate(4 1)"/><path id="path-1_315_" d="m0 0h58.471v58.471h-58.471z" transform="translate(1 1)"/><path id="path-1_314_" d="m0 87.706h58.471v58.471h-58.471z" transform="translate(1 4)"/><path id="path-1_313_" d="m0 175.412h58.471v58.471h-58.471z" transform="translate(1 7)"/><path id="path-1_312_" d="m87.706 175.412h58.471v58.471h-58.471z" transform="translate(4 7)"/><path d="m175.412 0h58.471v409.294h-58.471z"/><path id="path-1_311_" d="m263.118 0h58.471v58.471h-58.471z" transform="translate(10 1)"/><path id="path-1_310_" d="m350.824 350.824h58.471v58.471h-58.471z" transform="translate(13 13)"/><path id="path-1_309_" d="m0 350.824h58.471v58.471h-58.471z" transform="translate(1 13)"/><path id="path-1_308_" d="m0 263.118h58.471v58.471h-58.471z" transform="translate(1 10)"/><path id="path-1_307_" d="m87.706 350.824h58.471v58.471h-58.471z" transform="translate(4 13)"/><path id="path-1_306_" d="m263.118 350.824h58.471v58.471h-58.471z" transform="translate(10 13)"/><path id="path-1_305_" d="m350.824 87.706h58.471v58.471h-58.471z" transform="translate(13 4)"/><path id="path-1_304_" d="m350.824 175.412h58.471v58.471h-58.471z" transform="translate(13 7)"/><path id="path-1_303_" d="m350.824 263.118h58.471v58.471h-58.471z" transform="translate(13 10)"/></svg>