<svg id="Capa_1" enable-background="new 0 0 467.765 467.765" height="512" viewBox="0 0 467.765 467.765" width="512" xmlns="http://www.w3.org/2000/svg"><path id="path-1_72_" d="m0 175.412h58.471v58.471h-58.471z" transform="translate(0 6)"/><path d="m0 292.353h467.765v58.471h-467.765z"/><path d="m0 409.294h350.824v58.471h-350.824z"/><path id="path-1_71_" d="m0 58.471h58.471v58.471h-58.471z" transform="translate(0 2)"/><path id="path-1_70_" d="m409.294 175.412h58.471v58.471h-58.471z" transform="translate(14 6)"/><path id="path-1_69_" d="m409.294 58.471h58.471v58.471h-58.471z" transform="translate(14 2)"/><path d="m116.941 263.118h233.882c16.145 0 29.235-13.09 29.235-29.235v-204.648c.001-16.145-13.089-29.235-29.234-29.235h-233.883c-16.145 0-29.235 13.09-29.235 29.235v204.647c0 16.145 13.09 29.236 29.235 29.236zm29.235-204.647h175.412v146.176l-87.706-87.706-87.706 87.706z"/></svg>