<svg id="Capa_1" enable-background="new 0 0 467.765 467.765" height="512" viewBox="0 0 467.765 467.765" width="512" xmlns="http://www.w3.org/2000/svg"><path id="path-1_76_" d="m0 175.412h146.176v58.471h-146.176z" transform="translate(0 6)"/><path d="m0 292.353h467.765v58.471h-467.765z"/><path d="m0 409.294h350.824v58.471h-350.824z"/><path id="path-1_75_" d="m0 58.471h146.176v58.471h-146.176z" transform="translate(0 2)"/><path d="m438.529 0h-233.882c-16.145 0-29.235 13.09-29.235 29.235v204.647c0 16.145 13.09 29.235 29.235 29.235h233.882c16.145 0 29.235-13.09 29.235-29.235v-204.647c.001-16.145-13.09-29.235-29.235-29.235zm-29.235 204.647-87.706-87.706-87.706 87.706v-146.176h175.412z"/></svg>