<svg id="Capa_1" enable-background="new 0 0 409.294 409.294" height="512" viewBox="0 0 409.294 409.294" width="512" xmlns="http://www.w3.org/2000/svg"><path id="path-1_113_" d="m175.412 87.706h58.471v58.471h-58.471z" transform="translate(7 4)"/><path d="m0 0h58.471v409.294h-58.471z"/><path id="path-1_112_" d="m87.706 350.824h58.471v58.471h-58.471z" transform="translate(4 13)"/><path id="path-1_111_" d="m175.412 350.824h58.471v58.471h-58.471z" transform="translate(7 13)"/><path id="path-1_110_" d="m175.412 263.118h58.471v58.471h-58.471z" transform="translate(7 10)"/><path id="path-1_109_" d="m263.118 175.412h58.471v58.471h-58.471z" transform="translate(10 7)"/><path id="path-1_108_" d="m87.706 175.412h58.471v58.471h-58.471z" transform="translate(4 7)"/><path id="path-1_107_" d="m350.824 0h58.471v58.471h-58.471z" transform="translate(13 1)"/><path id="path-1_106_" d="m350.824 175.412h58.471v58.471h-58.471z" transform="translate(13 7)"/><path id="path-1_105_" d="m350.824 350.824h58.471v58.471h-58.471z" transform="translate(13 13)"/><path id="path-1_104_" d="m263.118 350.824h58.471v58.471h-58.471z" transform="translate(10 13)"/><path id="path-1_103_" d="m350.824 263.118h58.471v58.471h-58.471z" transform="translate(13 10)"/><path id="path-1_102_" d="m350.824 87.706h58.471v58.471h-58.471z" transform="translate(13 4)"/><path id="path-1_101_" d="m87.706 0h58.471v58.471h-58.471z" transform="translate(4 1)"/><path id="path-1_100_" d="m175.412 0h58.471v58.471h-58.471z" transform="translate(7 1)"/><path id="path-1_99_" d="m263.118 0h58.471v58.471h-58.471z" transform="translate(10 1)"/><path id="path-1_98_" d="m175.412 175.412h58.471v58.471h-58.471z" transform="translate(7 7)"/></svg>