<svg id="Capa_1" enable-background="new 0 0 467.765 467.765" height="512" viewBox="0 0 467.765 467.765" width="512" xmlns="http://www.w3.org/2000/svg"><path d="m248.5 58.471c36.332 0 66.316 26.725 71.916 61.504-16.393 6.351-28.063 22.169-28.063 40.805 0 24.219 19.634 43.853 43.853 43.853s43.853-19.634 43.853-43.853v-29.221c0-72.546-59.013-131.559-131.559-131.559s-131.559 59.013-131.559 131.559v73.088h-58.47v58.471h58.471v146.176h-58.471v58.471h175.412v-58.471h-58.471v-146.176h58.471v-58.471h-58.471v-73.088c0-40.299 32.79-73.088 73.088-73.088z"/><path d="m380.059 409.294v-175.412h-58.471v175.412h-29.235v58.471h116.941v-58.471z"/></svg>