<svg id="Capa_1" enable-background="new 0 0 467.765 467.765" height="512" viewBox="0 0 467.765 467.765" width="512" xmlns="http://www.w3.org/2000/svg"><path d="m423.555 401.358c28.093-23.411 44.21-57.814 44.21-94.387 0-40.299-32.79-73.088-73.088-73.088s-73.088 32.79-73.088 73.088v14.618h58.471v-14.618c0-8.065 6.552-14.618 14.618-14.618s14.618 6.552 14.618 14.618c0 19.171-8.451 37.201-23.168 49.477l-62.027 51.681-127.257-203.61 127.822-204.519h-68.952l-93.348 149.356-93.348-149.356h-68.952l127.824 204.519-127.89 204.624h68.952l93.414-149.463 93.414 149.463h67.103l-1.295 1.08v57.543h146.176v-58.471h-53.731z"/></svg>