<svg id="Capa_1" enable-background="new 0 0 409.294 409.294" height="512" viewBox="0 0 409.294 409.294" width="512" xmlns="http://www.w3.org/2000/svg"><path id="path-1_241_" d="m175.412 87.706h58.471v58.471h-58.471z" transform="translate(7 4)"/><path id="path-1_240_" d="m0 0h58.471v58.471h-58.471z" transform="translate(1 1)"/><path id="path-1_239_" d="m0 263.118h58.471v58.471h-58.471z" transform="translate(1 10)"/><path id="path-1_238_" d="m0 350.824h58.471v58.471h-58.471z" transform="translate(1 13)"/><path id="path-1_237_" d="m87.706 350.824h58.471v58.471h-58.471z" transform="translate(4 13)"/><path id="path-1_236_" d="m175.412 350.824h58.471v58.471h-58.471z" transform="translate(7 13)"/><path id="path-1_235_" d="m175.412 263.118h58.471v58.471h-58.471z" transform="translate(7 10)"/><path id="path-1_234_" d="m263.118 175.412h58.471v58.471h-58.471z" transform="translate(10 7)"/><path id="path-1_233_" d="m87.706 175.412h58.471v58.471h-58.471z" transform="translate(4 7)"/><path id="path-1_232_" d="m0 175.412h58.471v58.471h-58.471z" transform="translate(1 7)"/><path id="path-1_231_" d="m0 87.706h58.471v58.471h-58.471z" transform="translate(1 4)"/><path id="path-1_230_" d="m350.824 0h58.471v58.471h-58.471z" transform="translate(13 1)"/><path id="path-1_229_" d="m350.824 175.412h58.471v58.471h-58.471z" transform="translate(13 7)"/><path id="path-1_228_" d="m350.824 350.824h58.471v58.471h-58.471z" transform="translate(13 13)"/><path id="path-1_227_" d="m263.118 350.824h58.471v58.471h-58.471z" transform="translate(10 13)"/><path id="path-1_226_" d="m350.824 263.118h58.471v58.471h-58.471z" transform="translate(13 10)"/><path id="path-1_225_" d="m350.824 87.706h58.471v58.471h-58.471z" transform="translate(13 4)"/><path id="path-1_224_" d="m87.706 0h58.471v58.471h-58.471z" transform="translate(4 1)"/><path id="path-1_223_" d="m175.412 0h58.471v58.471h-58.471z" transform="translate(7 1)"/><path id="path-1_222_" d="m263.118 0h58.471v58.471h-58.471z" transform="translate(10 1)"/><path id="path-1_221_" d="m175.412 175.412h58.471v58.471h-58.471z" transform="translate(7 7)"/></svg>