<svg id="Capa_1" enable-background="new 0 0 467.765 467.765" height="512" viewBox="0 0 467.765 467.765" width="512" xmlns="http://www.w3.org/2000/svg"><path d="m160.787 204.647h14.632v116.941h58.428l.037-263.118h29.241v263.118h58.471v-263.117h29.235v-58.471h-190.044c-27.337 0-53.046 10.649-72.375 29.978-19.314 19.328-29.963 45.038-29.949 72.36.001 56.415 45.909 102.309 102.324 102.309zm-31.02-133.329c8.28-8.28 19.3-12.848 31.02-12.848h14.627l-.012 87.706h-14.614c-24.182 0-43.853-19.671-43.853-43.853-.001-11.705 4.553-22.725 12.832-31.005z"/><path d="m409.301 350.824h-263.117v-58.471l-87.706 87.706 87.706 87.706v-58.471h263.118v-58.47z"/></svg>