<svg id="Capa_1" enable-background="new 0 0 409.294 409.294" height="512" viewBox="0 0 409.294 409.294" width="512" xmlns="http://www.w3.org/2000/svg"><path id="path-1_159_" d="m175.412 263.118h58.471v58.471h-58.471z" transform="translate(7 10)"/><path d="m350.824 0h58.471v409.294h-58.471z"/><path id="path-1_158_" d="m263.118 0h58.471v58.471h-58.471z" transform="translate(10 1)"/><path id="path-1_157_" d="m175.412 0h58.471v58.471h-58.471z" transform="translate(7 1)"/><path id="path-1_156_" d="m175.412 87.706h58.471v58.471h-58.471z" transform="translate(7 4)"/><path id="path-1_155_" d="m87.706 175.412h58.471v58.471h-58.471z" transform="translate(4 7)"/><path id="path-1_154_" d="m263.118 175.412h58.471v58.471h-58.471z" transform="translate(10 7)"/><path id="path-1_153_" d="m0 350.824h58.471v58.471h-58.471z" transform="translate(1 13)"/><path id="path-1_152_" d="m0 175.412h58.471v58.471h-58.471z" transform="translate(1 7)"/><path id="path-1_151_" d="m0 0h58.471v58.471h-58.471z" transform="translate(1 1)"/><path id="path-1_150_" d="m87.706 0h58.471v58.471h-58.471z" transform="translate(4 1)"/><path id="path-1_149_" d="m0 87.706h58.471v58.471h-58.471z" transform="translate(1 4)"/><path id="path-1_148_" d="m0 263.118h58.471v58.471h-58.471z" transform="translate(1 10)"/><path id="path-1_147_" d="m263.118 350.824h58.471v58.471h-58.471z" transform="translate(10 13)"/><path id="path-1_146_" d="m175.412 350.824h58.471v58.471h-58.471z" transform="translate(7 13)"/><path id="path-1_145_" d="m87.706 350.824h58.471v58.471h-58.471z" transform="translate(4 13)"/><path id="path-1_144_" d="m175.412 175.412h58.471v58.471h-58.471z" transform="translate(7 7)"/></svg>