<svg id="Capa_1" enable-background="new 0 0 467.765 467.765" height="512" viewBox="0 0 467.765 467.765" width="512" xmlns="http://www.w3.org/2000/svg"><path d="m175.412 0h-58.471v321.588h-58.47l87.706 87.706 87.706-87.706h-58.471z"/><path d="m292.353 204.647h58.471v-175.412c0-16.145-13.091-29.235-29.236-29.235h-58.471v58.471h29.235v146.176z"/><path d="m336.206 233.882c-40.299 0-73.088 32.79-73.088 73.088 0 37.709 28.818 68.478 65.526 72.323-16.084 18.242-39.349 30.001-65.526 30.001v58.471c80.597 0 146.176-65.579 146.176-146.176v-14.618c0-40.299-32.79-73.089-73.088-73.089zm-14.618 73.089c0-8.065 6.552-14.618 14.618-14.618 8.065 0 14.618 6.552 14.618 14.618s-6.552 14.618-14.618 14.618c-8.066-.001-14.618-6.553-14.618-14.618z"/></svg>