<svg id="Capa_1" enable-background="new 0 0 467.765 467.765" height="512" viewBox="0 0 467.765 467.765" width="512" xmlns="http://www.w3.org/2000/svg"><path d="m165.462 175.412c-11.968-12.548-19.286-29.342-19.286-47.679 0-38.186 31.077-69.263 69.263-69.263h164.62v-58.47h-164.62c-70.433 0-127.733 57.3-127.733 127.733 0 16.809 3.578 32.82 9.566 47.679z"/><path d="m302.303 292.353c11.968 12.548 19.286 29.342 19.286 47.679 0 38.186-31.077 69.263-69.262 69.263h-164.621v58.471h164.62c70.433 0 127.733-57.3 127.733-127.733 0-16.809-3.576-32.822-9.564-47.679-.001-.001-68.192-.001-68.192-.001z"/><path d="m58.471 204.647h350.824v58.471h-350.824z"/></svg>