<svg id="Capa_1" enable-background="new 0 0 467.765 467.765" height="512" viewBox="0 0 467.765 467.765" width="512" xmlns="http://www.w3.org/2000/svg"><path d="m380.063 467.765h-292.32c-10.933 0-20.968-6.099-25.978-15.802-5.01-9.704-4.182-21.402 2.155-30.293l134.084-188.172-134.083-187.346c-6.366-8.906-7.222-20.604-2.212-30.322 5.009-9.717 15.043-15.83 25.991-15.83h292.362c16.143 0 29.232 13.066 29.232 29.182v58.364h-58.464v-29.182h-206.322l113.174 158.121c7.251 10.131 7.265 23.739.043 33.884l-113.317 159.032h206.422v-29.342h58.464v58.524c0 16.115-13.089 29.181-29.231 29.182z"/></svg>