<svg id="Capa_1" enable-background="new 0 0 409.294 409.294" height="512" viewBox="0 0 409.294 409.294" width="512" xmlns="http://www.w3.org/2000/svg"><path id="path-1_179_" d="m263.118 175.412h58.471v58.471h-58.471z" transform="translate(10 7)"/><path d="m0 0h409.294v58.471h-409.294z"/><path id="path-1_178_" d="m0 87.706h58.471v58.471h-58.471z" transform="translate(1 4)"/><path id="path-1_177_" d="m0 175.412h58.471v58.471h-58.471z" transform="translate(1 7)"/><path id="path-1_176_" d="m87.706 175.412h58.471v58.471h-58.471z" transform="translate(4 7)"/><path id="path-1_175_" d="m175.412 263.118h58.471v58.471h-58.471z" transform="translate(7 10)"/><path id="path-1_174_" d="m175.412 87.706h58.471v58.471h-58.471z" transform="translate(7 4)"/><path id="path-1_173_" d="m350.824 350.824h58.471v58.471h-58.471z" transform="translate(13 13)"/><path id="path-1_172_" d="m175.412 350.824h58.471v58.471h-58.471z" transform="translate(7 13)"/><path id="path-1_171_" d="m0 350.824h58.471v58.471h-58.471z" transform="translate(1 13)"/><path id="path-1_170_" d="m0 263.118h58.471v58.471h-58.471z" transform="translate(1 10)"/><path id="path-1_169_" d="m87.706 350.824h58.471v58.471h-58.471z" transform="translate(4 13)"/><path id="path-1_168_" d="m263.118 350.824h58.471v58.471h-58.471z" transform="translate(10 13)"/><path id="path-1_167_" d="m350.824 87.706h58.471v58.471h-58.471z" transform="translate(13 4)"/><path id="path-1_166_" d="m350.824 175.412h58.471v58.471h-58.471z" transform="translate(13 7)"/><path id="path-1_165_" d="m350.824 263.118h58.471v58.471h-58.471z" transform="translate(13 10)"/><path id="path-1_164_" d="m175.412 175.412h58.471v58.471h-58.471z" transform="translate(7 7)"/></svg>