<?xml version="1.0" encoding="utf-8"?>
<!-- Generator: Adobe Illustrator 23.0.0, SVG Export Plug-In . SVG Version: 6.00 Build 0)  -->
<svg version="1.1" id="Capa_1" xmlns="http://www.w3.org/2000/svg" xmlns:xlink="http://www.w3.org/1999/xlink" x="0px" y="0px"
	 viewBox="0 0 512 512" style="enable-background:new 0 0 512 512;" xml:space="preserve">
<rect x="124.06" y="375.77" transform="matrix(0.7071 -0.7071 0.7071 0.7071 -224.2018 280.7576)" width="205.49" height="70.49"/>
<rect x="-6.51" y="245.2" transform="matrix(0.7071 -0.7071 0.7071 0.7071 -170.1183 150.1885)" width="205.49" height="70.49"/>
<rect x="73.93" y="315.21" transform="matrix(0.7071 -0.7071 0.7071 0.7071 -242.9811 191.0894)" width="70.49" height="147.28"/>
<rect x="180.22" y="58.47" transform="matrix(-0.7071 0.7071 -0.7071 -0.7071 549.3203 -40.1119)" width="205.49" height="70.49"/>
<rect x="152.14" y="217.12" transform="matrix(-0.7071 0.7071 -0.7071 -0.7071 613.5645 250.5795)" width="205.49" height="70.49"/>
<rect x="310.79" y="189.04" transform="matrix(-0.7071 0.7071 -0.7071 -0.7071 864.5419 90.4572)" width="205.49" height="70.49"/>
<rect x="356.13" y="33.01" transform="matrix(-0.7071 0.7071 -0.7071 -0.7071 743.5272 -94.6742)" width="70.49" height="147.28"/>
</svg>
