<?xml version="1.0" encoding="utf-8"?>
<!-- Generator: Adobe Illustrator 23.0.0, SVG Export Plug-In . SVG Version: 6.00 Build 0)  -->
<svg version="1.1" id="Capa_1" xmlns="http://www.w3.org/2000/svg" xmlns:xlink="http://www.w3.org/1999/xlink" x="0px" y="0px"
	 viewBox="0 0 512 512" style="enable-background:new 0 0 512 512;" xml:space="preserve">
<style type="text/css">
	.st0{stroke:#FFFFFF;stroke-width:20;stroke-miterlimit:10;}
</style>
<path d="M51.2,512h409.6c28.27,0,51.2-25.47,51.2-56.89V56.89C512,25.47,489.08,0,460.8,0H51.2C22.92,0,0,25.47,0,56.89v398.22
	C0,486.53,22.92,512,51.2,512L51.2,512z M102.4,113.78h307.2v284.44L256,227.55L102.4,398.22V113.78z"/>
<g>
	<polygon class="st0" points="180.25,412.4 99.6,331.75 194.97,236.37 145.17,186.57 0,331.75 33.49,365.24 33.49,365.24 
		137.54,469.29 137.54,469.29 180.25,512 325.43,366.83 275.63,317.03 	"/>
	
		<rect x="153.35" y="220.79" transform="matrix(0.7071 -0.7071 0.7071 0.7071 -106.0393 256.0022)" class="st0" width="205.31" height="70.43"/>
	<polygon class="st0" points="462.2,130.45 462.2,130.46 381.54,49.8 381.55,49.8 331.75,0 186.57,145.17 236.37,194.97 
		331.75,99.6 412.4,180.26 317.03,275.63 366.83,325.43 512,180.25 	"/>
</g>
</svg>
