<?xml version="1.0" encoding="utf-8"?>
<!-- Generator: Adobe Illustrator 23.0.0, SVG Export Plug-In . SVG Version: 6.00 Build 0)  -->
<svg version="1.1" id="Layer_1" xmlns="http://www.w3.org/2000/svg" xmlns:xlink="http://www.w3.org/1999/xlink" x="0px" y="0px"
	 viewBox="0 0 27.01 27.01" style="enable-background:new 0 0 27.01 27.01;" xml:space="preserve">
<style type="text/css">
	.st0{fill:#FFBB7D;stroke:#000000;stroke-width:0.5;stroke-miterlimit:10;}
	.st1{stroke:#000000;stroke-width:0.5;stroke-miterlimit:10;}
</style>
<g>
	<g>
		<circle class="st0" cx="13.5" cy="13.5" r="12.3"/>
		<path class="st1" d="M13.5,26.53c-7.18,0-13.02-5.84-13.02-13.02S6.32,0.48,13.5,0.48c7.18,0,13.02,5.84,13.02,13.02
			S20.68,26.53,13.5,26.53z M13.5,1.93C7.12,1.93,1.93,7.12,1.93,13.5S7.12,25.08,13.5,25.08c6.38,0,11.58-5.19,11.58-11.58
			S19.89,1.93,13.5,1.93z"/>
	</g>
	<circle class="st1" cx="17.58" cy="10.58" r="1.16"/>
	<circle class="st1" cx="9.43" cy="10.58" r="1.16"/>
	<path class="st1" d="M9.85,19.26l-0.84-1.18c2.69-1.91,6.3-1.91,8.99,0l-0.84,1.18C14.97,17.71,12.03,17.71,9.85,19.26z"/>
</g>
</svg>
