<?xml version="1.0" encoding="utf-8"?>
<!-- Generator: Adobe Illustrator 23.0.0, SVG Export Plug-In . SVG Version: 6.00 Build 0)  -->
<svg version="1.1" id="Layer_1" xmlns="http://www.w3.org/2000/svg" xmlns:xlink="http://www.w3.org/1999/xlink" x="0px" y="0px"
	 viewBox="0 0 100 100" style="enable-background:new 0 0 100 100;" xml:space="preserve">
<style type="text/css">
	.st0{fill:#000000;}
</style>
<g>
	<path class="st0" d="M50,7.53c7.2,0,13.06,5.86,13.06,13.06S57.2,33.65,50,33.65s-13.06-5.86-13.06-13.06S42.8,7.53,50,7.53 M50,0
		C38.63,0,29.41,9.22,29.41,20.59S38.63,41.18,50,41.18s20.59-9.22,20.59-20.59S61.37,0,50,0L50,0z"/>
	<path class="st0" d="M50,55.16c20.09,0,34.09,9.83,34.09,18.66S70.09,92.47,50,92.47s-34.09-9.83-34.09-18.66S29.91,55.16,50,55.16
		 M50,47.62c-22.99,0-41.63,11.73-41.63,26.19S27.01,100,50,100s41.63-11.73,41.63-26.19S72.99,47.62,50,47.62L50,47.62z"/>
</g>
</svg>
