<?xml version="1.0" encoding="utf-8"?>
<!-- Generator: Adobe Illustrator 23.0.0, SVG Export Plug-In . SVG Version: 6.00 Build 0)  -->
<svg version="1.1" id="Layer_1" xmlns="http://www.w3.org/2000/svg" xmlns:xlink="http://www.w3.org/1999/xlink" x="0px" y="0px"
	 viewBox="0 0 200 200" style="enable-background:new 0 0 200 200;" xml:space="preserve">
<style type="text/css">
	.st0{fill:#FFFFFF;}
</style>
<circle class="st0" cx="100" cy="100.21" r="94.13"/>
<path d="M170.53,29.53C151.58,10.56,126.36,0.07,99.53,0h-0.27c-26.5,0-51.48,10.38-70.33,29.23C10.06,48.07-0.43,73.16-0.62,99.84
	c-0.19,26.63,10.13,51.8,29.06,70.86c19.03,19.17,44.3,29.72,71.16,29.72c55.07,0,100.01-44.92,100.19-100.13
	C199.87,73.63,189.49,48.5,170.53,29.53z M161.88,161.86c-16.52,16.71-38.38,25.97-61.56,26.08h-0.4
	c-48.35,0-87.87-39.06-88.07-87.05c-0.21-48.46,39.12-88.12,87.67-88.41h0.51c47.86,0,87.01,39.24,87.27,87.46
	C187.43,123.16,178.4,145.15,161.88,161.86z"/>
<path d="M130.4,103.15c-4.72-4.88-11.71-8.11-20.79-9.58L106.08,93v-3.57V69.05v-4.28l4.28,0.08c6.48,0.13,11.62,4,13.64,10.2
	c3.18,0.05,6.28,0.06,8.96,0.06c1.27,0,2.55,0,3.84,0c-0.59-3.95-2.01-7.54-4.3-10.89c-5.25-7.68-12.72-11.68-22.83-12.23
	l-3.97-0.22V47.8v-5.9H93.13v5.9v3.95L89.19,52c-17.71,1.11-26.5,14.01-27.17,25.5c-0.4,6.96,1.41,12.94,5.51,18.28
	c5.24,6.81,12.31,10.34,21.6,10.82l3.99,0.2v3.99v20.68v4.51l-4.49-0.32c-4.85-0.34-10.84-2.46-13.5-10.21H62.21
	c1.06,11.38,11.31,20.11,27.69,23.2l3.42,0.65v3.48v5.74h12.53v-5.85v-3.64l3.61-0.51c17.46-2.49,27.56-12.32,27.69-26.97
	C137.24,114.06,134.96,107.87,130.4,103.15z M93.14,69.09v20.37v3.99l-3.99,0.2c-0.24,0.01-0.47,0.02-0.7,0.02
	c-7.6,0-13.84-6.42-13.93-14.3c-0.03-3.91,1.44-7.56,4.15-10.29c2.68-2.7,6.28-4.19,10.13-4.19h0.19l4.15,0.05
	C93.14,64.94,93.14,69.09,93.14,69.09z M110.59,135.47c-0.19,0-0.38,0-0.57,0l-4.03-0.17v-4.03v-20.35v-4.13l4.13-0.07h0.25
	c3.82,0,7.39,1.48,10.07,4.16c2.72,2.71,4.2,6.36,4.19,10.26C124.6,129.04,118.3,135.47,110.59,135.47z"/>
</svg>
