<?xml version="1.0" encoding="utf-8"?>
<!-- Generator: Adobe Illustrator 23.0.0, SVG Export Plug-In . SVG Version: 6.00 Build 0)  -->
<svg version="1.1" id="Layer_1" xmlns="http://www.w3.org/2000/svg" xmlns:xlink="http://www.w3.org/1999/xlink" x="0px" y="0px"
	 viewBox="0 0 200 200" style="enable-background:new 0 0 200 200;" xml:space="preserve">
<style type="text/css">
	.st0{fill:#FFFFFF;}
</style>
<circle class="st0" cx="100" cy="100.21" r="94.13"/>
<path d="M152.56,105.26c-8.11-8.39-20.12-13.94-35.73-16.46l-6.07-0.98v-6.14V46.66V39.3l7.36,0.14
	c11.14,0.22,19.97,6.87,23.44,17.53c5.47,0.09,10.79,0.1,15.4,0.1c2.18,0,4.38,0,6.6,0c-1.01-6.79-3.45-12.96-7.39-18.72
	c-9.02-13.2-21.86-20.07-39.24-21.02l-6.82-0.38v-6.82V0h-21.6v10.14v6.79l-6.77,0.43C51.3,19.27,36.2,41.43,35.05,61.18
	c-0.69,11.96,2.42,22.24,9.47,31.42c9.01,11.7,21.16,17.77,37.12,18.59l6.86,0.34v6.86v35.54v7.75l-7.72-0.55
	c-8.34-0.58-18.63-4.23-23.2-17.55h-22.2c1.82,19.56,19.44,34.56,47.59,39.87l5.88,1.12v5.98v9.86h21.53v-10.05v-6.26l6.2-0.88
	c30.01-4.28,47.36-21.17,47.59-46.35C164.32,124.01,160.4,113.37,152.56,105.26z M88.53,46.73v35.01v6.86l-6.86,0.34
	c-0.41,0.02-0.81,0.03-1.2,0.03c-13.06,0-23.79-11.03-23.94-24.58C56.48,57.68,59,51.4,63.66,46.71c4.61-4.64,10.79-7.2,17.41-7.2
	h0.33l7.13,0.09C88.53,39.6,88.53,46.73,88.53,46.73z M118.52,160.81c-0.33,0-0.65,0-0.98,0l-6.93-0.29v-6.93v-34.97v-7.1l7.1-0.12
	h0.43c6.56,0,12.7,2.54,17.31,7.15c4.67,4.66,7.22,10.93,7.2,17.63C142.59,149.76,131.77,160.81,118.52,160.81z"/>
</svg>
