<?xml version="1.0" encoding="utf-8"?>
<!-- Generator: Adobe Illustrator 23.0.0, SVG Export Plug-In . SVG Version: 6.00 Build 0)  -->
<svg version="1.1" id="Layer_1" xmlns="http://www.w3.org/2000/svg" xmlns:xlink="http://www.w3.org/1999/xlink" x="0px" y="0px"
	 viewBox="0 0 200 200" style="enable-background:new 0 0 200 200;" xml:space="preserve">
<style type="text/css">
	.st0{fill:#FFFFFF;}
</style>
<g>
	<path class="st0" d="M10.15,194c-2.2,0-4.06-1.86-4.06-4.06v-85.88c0-2.2,1.86-4.06,4.06-4.06h37.4c2.2,0,4.06,1.86,4.06,4.06
		v85.88c0,2.2-1.86,4.06-4.06,4.06H10.15z"/>
	<path d="M45.61,106v82H12.09v-82H45.61 M47.55,94h-37.4c-5.53,0-10.06,4.53-10.06,10.06v85.88c0,5.53,4.53,10.06,10.06,10.06h37.4
		c5.53,0,10.06-4.53,10.06-10.06v-85.88C57.61,98.53,53.09,94,47.55,94L47.55,94z"/>
</g>
<g>
	<path class="st0" d="M81.3,194c-2.2,0-4.06-1.86-4.06-4.06V10.06C77.24,7.86,79.1,6,81.3,6h37.4c2.2,0,4.06,1.86,4.06,4.06v179.88
		c0,2.2-1.86,4.06-4.06,4.06H81.3z"/>
	<path d="M116.76,12v176H83.24V12H116.76 M118.7,0H81.3c-5.53,0-10.06,4.53-10.06,10.06v179.88c0,5.53,4.53,10.06,10.06,10.06h37.4
		c5.53,0,10.06-4.53,10.06-10.06V10.06C128.76,4.53,124.23,0,118.7,0L118.7,0z"/>
</g>
<g>
	<path class="st0" d="M152.45,194c-2.2,0-4.06-1.86-4.06-4.06V63.06c0-2.2,1.86-4.06,4.06-4.06h37.4c2.2,0,4.06,1.86,4.06,4.06
		v126.88c0,2.2-1.86,4.06-4.06,4.06H152.45z"/>
	<path d="M187.91,65v123h-33.52V65H187.91 M189.85,53h-37.4c-5.53,0-10.06,4.53-10.06,10.06v126.88c0,5.53,4.53,10.06,10.06,10.06
		h37.4c5.53,0,10.06-4.53,10.06-10.06V63.06C199.91,57.53,195.38,53,189.85,53L189.85,53z"/>
</g>
</svg>
