<?xml version="1.0" encoding="utf-8"?>
<!-- Generator: Adobe Illustrator 23.0.0, SVG Export Plug-In . SVG Version: 6.00 Build 0)  -->
<svg version="1.1" id="Layer_1" xmlns="http://www.w3.org/2000/svg" xmlns:xlink="http://www.w3.org/1999/xlink" x="0px" y="0px"
	 viewBox="0 0 200 200" style="enable-background:new 0 0 200 200;" xml:space="preserve">
<style type="text/css">
	.st0{fill:#FFFFFF;}
	.st1{fill:#FFFFFF;stroke:#000000;stroke-width:10;stroke-miterlimit:10;}
</style>
<g>
	<path class="st0" d="M12,194c-3.31,0-6-2.69-6-6V42.19c0-3.31,2.69-6,6-6h145.81c3.31,0,6,2.69,6,6V188c0,3.31-2.69,6-6,6H12z"/>
	<path d="M157.79,42.19c0.01,0,0.01,0.01,0.02,0.01l0,0l0.01,145.77c-0.01,0.01-0.03,0.03-0.01,0.04l-145.77,0.01
		c-0.01-0.01-0.02-0.02-0.03-0.02l0,0L11.99,42.22c0.01-0.01,0.03-0.03,0.01-0.04L157.79,42.19 M157.81,30.19H12
		c-6.6,0-12,5.4-12,12V188c0,6.6,5.4,12,12,12h145.81c6.6,0,12-5.4,12-12V42.19C169.81,35.59,164.41,30.19,157.81,30.19
		L157.81,30.19z"/>
</g>
<g>
	<path class="st0" d="M42.19,163.81c-3.31,0-6-2.69-6-6V12c0-3.31,2.69-6,6-6H188c3.31,0,6,2.69,6,6v145.81c0,3.31-2.69,6-6,6H42.19
		z"/>
	<path d="M187.98,12c0.01,0,0.01,0.01,0.02,0.01l0,0l0.01,145.77c-0.01,0.01-0.03,0.03-0.01,0.04l-145.77,0.01
		c-0.01-0.01-0.02-0.02-0.03-0.02l0,0L42.18,12.04c0.01-0.01,0.03-0.03,0.01-0.04H187.98 M188,0H42.19c-6.6,0-12,5.4-12,12v145.81
		c0,6.6,5.4,12,12,12H188c6.6,0,12-5.4,12-12V12C200,5.4,194.6,0,188,0L188,0z"/>
</g>
<line class="st1" x1="59.57" y1="35.37" x2="169.81" y2="35.37"/>
<line class="st1" x1="59.57" y1="60.14" x2="169.81" y2="60.14"/>
<line class="st1" x1="59.57" y1="84.9" x2="169.81" y2="84.9"/>
<line class="st1" x1="59.57" y1="109.67" x2="169.81" y2="109.67"/>
<line class="st1" x1="59.57" y1="134.44" x2="169.81" y2="134.44"/>
</svg>
