<?xml version="1.0" encoding="utf-8"?>
<!-- Generator: Adobe Illustrator 23.0.0, SVG Export Plug-In . SVG Version: 6.00 Build 0)  -->
<svg version="1.1" id="Layer_1" xmlns="http://www.w3.org/2000/svg" xmlns:xlink="http://www.w3.org/1999/xlink" x="0px" y="0px"
	 viewBox="0 0 100 100" style="enable-background:new 0 0 100 100;" xml:space="preserve">
<style type="text/css">
	.st0{fill:#FFFFFF;stroke:#000000;stroke-width:7;stroke-miterlimit:10;}
</style>
<path class="st0" d="M80.4,64.1h-1.6V44c0-13.1-8.8-24.2-20.8-27.7v-4.4c0-4.4-3.6-8-8-8s-8,3.6-8,8v4.4C30,19.8,21.2,30.8,21.2,44
	v20.1h-1.6c-5.3,0-9.6,4.3-9.6,9.6c0,5.3,4.3,9.6,9.6,9.6h19.4c-0.1,0.5-0.1,1.1-0.1,1.6c0,6.2,5,11.2,11.2,11.2s11.2-5,11.2-11.2
	c0-0.5-0.1-1.1-0.1-1.6h19.4c5.3,0,9.6-4.3,9.6-9.6C90.1,68.4,85.7,64.1,80.4,64.1z"/>
</svg>
