<?xml version="1.0" encoding="utf-8"?>
<!-- Generator: Adobe Illustrator 23.0.0, SVG Export Plug-In . SVG Version: 6.00 Build 0)  -->
<svg version="1.1" id="Layer_1" xmlns="http://www.w3.org/2000/svg" xmlns:xlink="http://www.w3.org/1999/xlink" x="0px" y="0px"
	 viewBox="0 0 22.4 22.45" style="enable-background:new 0 0 22.4 22.45;" xml:space="preserve">
<style type="text/css">
	.st0{fill:#000000;}
	.st1{fill:#FFFFFF;}
</style>
<path class="st0" d="M16.99,21.7H7.34c-2.56,0-4.66-2.1-4.66-4.66V7.39c0-2.56,2.1-4.66,4.66-4.66h9.65c2.56,0,4.66,2.1,4.66,4.66
	v9.65C21.65,19.61,19.55,21.7,16.99,21.7z"/>
<path class="st1" d="M16.99,22.45H7.34c-2.98,0-5.41-2.43-5.41-5.41V7.39c0-2.98,2.43-5.41,5.41-5.41h9.65
	c2.98,0,5.41,2.43,5.41,5.41v9.65C22.4,20.03,19.98,22.45,16.99,22.45z M7.34,3.48c-2.16,0-3.91,1.75-3.91,3.91v9.65
	c0,2.16,1.75,3.91,3.91,3.91h9.65c2.16,0,3.91-1.75,3.91-3.91V7.39c0-2.16-1.75-3.91-3.91-3.91H7.34z"/>
<g>
	<path class="st0" d="M8.11,2h2.08v5.69h6.16v1.92h-6.16v5.69H8.11V9.61H1.92V7.69h6.19V2z"/>
	<polygon class="st0" points="12.19,17.29 6.11,17.29 6.11,11.61 -0.08,11.61 -0.08,5.69 6.11,5.69 6.11,0 12.19,0 12.19,5.69 
		18.35,5.69 18.35,11.61 12.19,11.61 	"/>
</g>
<path class="st1" d="M8.11,1.98h2.08v5.69h6.16v1.92h-6.16v5.69H8.11V9.59H1.92V7.67h6.19V1.98z"/>
</svg>
