<?xml version="1.0" encoding="utf-8"?>
<!-- Generator: Adobe Illustrator 23.0.0, SVG Export Plug-In . SVG Version: 6.00 Build 0)  -->
<svg version="1.1" id="Layer_1" xmlns="http://www.w3.org/2000/svg" xmlns:xlink="http://www.w3.org/1999/xlink" x="0px" y="0px"
	 viewBox="0 0 22.4 22.5" style="enable-background:new 0 0 22.4 22.5;" xml:space="preserve">
<style type="text/css">
	.st0{fill:none;stroke:#FFFFFF;stroke-width:1.5;stroke-miterlimit:10;}
	.st1{fill:#FFFFFF;}
</style>
<rect width="22.5" height="22.5"/>
<ellipse class="st0" cx="11.3" cy="16.4" rx="8.9" ry="5.3"/>
<g>
	<rect x="16.6" y="11.3" width="5.9" height="10"/>
</g>
<g>
	<polygon class="st1" points="14.8,23.2 14.8,17.7 9.4,17.7 9.4,14.7 14.8,14.7 14.8,9.3 17.8,9.3 17.8,14.7 23.3,14.7 23.3,17.7 
		17.8,17.7 17.8,23.2 	"/>
	<path d="M17.1,10.1v5.4h5.4V17h-5.4v5.4h-1.5V17h-5.4v-1.5h5.4v-5.4H17.1 M18.6,8.6h-1.5h-1.5h-1.5v1.5V14h-3.9H8.7v1.5V17v1.5h1.5
		h3.9v3.9v1.5h1.5h1.5h1.5v-1.5v-3.9h3.9H24V17v-1.5V14h-1.5h-3.9v-3.9V8.6L18.6,8.6z"/>
</g>
<circle class="st0" cx="11.3" cy="4.7" r="3.9"/>
</svg>
