<?xml version="1.0" encoding="utf-8"?>
<!-- Generator: Adobe Illustrator 23.0.0, SVG Export Plug-In . SVG Version: 6.00 Build 0)  -->
<svg version="1.1" id="Layer_1" xmlns="http://www.w3.org/2000/svg" xmlns:xlink="http://www.w3.org/1999/xlink" x="0px" y="0px"
	 viewBox="0 0 500 500" style="enable-background:new 0 0 500 500;" xml:space="preserve">
<style type="text/css">
	.st0{fill:#FFFFFF;}
</style>
<g>
	<rect class="st0" width="500" height="500"/>
</g>
<g>
	<circle class="st0" cx="250" cy="139" r="72.5"/>
	<path d="M250,79c33.08,0,60,26.92,60,60s-26.92,60-60,60s-60-26.92-60-60S216.92,79,250,79 M250,54c-46.94,0-85,38.06-85,85
		s38.06,85,85,85c46.94,0,85-38.06,85-85S296.94,54,250,54L250,54z"/>
</g>
<g>
	<path class="st0" d="M250,432.5c-34.88,0-67.53-9.67-91.92-27.23c-23.15-16.66-35.9-38.42-35.9-61.27s12.75-44.61,35.9-61.27
		c24.4-17.56,57.04-27.23,91.92-27.23c34.88,0,67.53,9.67,91.92,27.23c23.15,16.66,35.9,38.42,35.9,61.27s-12.75,44.61-35.9,61.27
		C317.53,422.83,284.88,432.5,250,432.5z"/>
	<path d="M250,268c32.28,0,62.34,8.83,84.62,24.87c19.8,14.25,30.71,32.41,30.71,51.13s-10.9,36.88-30.71,51.13
		C312.34,411.17,282.28,420,250,420s-62.34-8.83-84.62-24.87c-19.8-14.25-30.71-32.41-30.71-51.13s10.9-36.88,30.71-51.13
		C187.66,276.83,217.72,268,250,268 M250,243c-77.5,0-140.33,45.22-140.33,101S172.5,445,250,445s140.33-45.22,140.33-101
		S327.5,243,250,243L250,243z"/>
</g>
</svg>
