<?xml version="1.0" encoding="utf-8"?>
<!-- Generator: Adobe Illustrator 23.0.0, SVG Export Plug-In . SVG Version: 6.00 Build 0)  -->
<svg version="1.1" id="Layer_1" xmlns="http://www.w3.org/2000/svg" xmlns:xlink="http://www.w3.org/1999/xlink" x="0px" y="0px"
	 viewBox="0 0 100 100" style="enable-background:new 0 0 100 100;" xml:space="preserve">
<style type="text/css">
	.st0{fill:#CECECE;}
</style>
<path class="st0" d="M31.3,68.4c-1.1,0-2.2-0.4-3-1.2c-0.8-0.8-1.2-1.9-1.2-3.1c0.1-9.3,0.1-18.8,0-28.1c0-1.2,0.4-2.4,1.2-3.2
	c0.8-0.8,1.9-1.2,3.2-1.2c2.9,0,5.8,0,8.7,0c2,0,20.9,0,20.9,0c2.5,0,5,0,7.5,0c1.9,0,3.2,0.7,3.9,2.2c0.3,0.5,0.4,1,0.4,1.5
	c0,3.6,0,7.2,0,10.8c0,6.2,0,12.4,0,18.6c0,2-1.7,3.6-3.7,3.6c-2.9,0-5.8,0-8.7,0l-10.4,0l-0.1,0c-1.8,0-3.6,0-5.3,0
	c-1.8,0-3.6,0-5.3,0C36.2,68.3,33.7,68.4,31.3,68.4L31.3,68.4z M31.6,35c-1,0-1.2,0.2-1.2,1.2c0,9.3,0,18.5,0,27.7
	c0,1,0.2,1.2,1.2,1.2h37c1,0,1.1-0.1,1.1-1.1V36.1c0-1-0.1-1.1-1.2-1.1H40.8H31.6z"/>
<path class="st0" d="M34.1,62.4c-0.3,0-0.6,0-0.8-0.2c-0.1-0.1-0.2-0.4-0.2-0.7c0.1-1,0-2,0-3l0-0.2c0-0.5,0.1-0.8,0.4-1.1
	c2.7-2.7,4.8-4.8,6.8-6.8c0.2-0.2,0.4-0.3,0.5-0.3c0.2,0,0.4,0.1,0.5,0.3c0.4,0.4,0.8,0.9,1.3,1.3c0.5,0.5,1,1,1.5,1.5
	c0.2,0.2,0.4,0.3,0.5,0.3s0.3-0.1,0.5-0.3c2-2,4-4,6-6c1.7-1.7,3.3-3.3,5-5c0.3-0.3,0.5-0.4,0.7-0.4c0.2,0,0.4,0.1,0.7,0.4
	c1.1,1.1,2.2,2.2,3.3,3.3c0.6,0.6,1.2,1.2,1.8,1.7c0.7,0.7,1.5,1.5,2.2,2.2c0.6,0.6,1.2,1.3,1.8,1.9c0.2,0.2,0.3,0.5,0.3,0.9l0,1.4
	c0,2.6,0,5.3,0,7.9c0,0.3-0.1,0.5-0.2,0.6c-0.2,0.2-0.5,0.2-0.7,0.2c-3.1,0-6.1,0-9.1,0H42.7C39.9,62.4,37,62.4,34.1,62.4L34.1,62.4
	L34.1,62.4z"/>
<path class="st0" d="M38.1,47.1c-0.1,0-0.2,0-0.3,0c-0.1,0-0.2,0-0.3,0l0,0c-1.1,0-2.2-0.5-3-1.4c-0.9-0.9-1.4-2.1-1.4-3.3
	c0.1-2.6,2.1-4.7,4.7-4.7c2.6,0,4.6,2.1,4.7,4.7c0,1.2-0.5,2.4-1.4,3.3C40.3,46.6,39.2,47.1,38.1,47.1z"/>
</svg>
