<?xml version="1.0" encoding="utf-8"?>
<!-- Generator: Adobe Illustrator 23.0.0, SVG Export Plug-In . SVG Version: 6.00 Build 0)  -->
<svg version="1.1" id="Layer_1" xmlns="http://www.w3.org/2000/svg" xmlns:xlink="http://www.w3.org/1999/xlink" x="0px" y="0px"
	 viewBox="0 0 200 170" style="enable-background:new 0 0 200 170;" xml:space="preserve">
<style type="text/css">
	.st0{fill:#000000;}
</style>
<g>
	<g>
		<path class="st0" d="M142.42-0.31l56.44,0c0.63,0,1.14,0.51,1.14,1.14v95.32c0,0.63-0.51,1.14-1.14,1.14h-56.44
			c-0.63,0-1.14-0.51-1.14-1.14V0.83C141.28,0.21,141.79-0.31,142.42-0.31z"/>
	</g>
	<g>
		<path class="st0" d="M29.64-0.31l79.95,0c5.28,0,9.59,4.32,9.59,9.59v75.68c0,2.04-0.64,3.96-1.66,5.74
			c-4.31,7.47-10.47,19.98-17.9,36.3c-4.29,9.43-8.38,28.43-9.68,35.93c-1.25,7.28-8.15,10.84-14.76,4.38c0,0-6.61-5.53-9.34-14.78
			c-2.65-8.98-1.44-21.61-0.61-27.13l4.28-28.12H9.44c-5.28,0-9.59-4.32-9.59-9.59L18.21,9.47C19.76,2.79,25.6-0.04,29.64-0.31z"/>
	</g>
</g>
</svg>
