<?xml version="1.0" encoding="utf-8"?>
<!-- Generator: Adobe Illustrator 23.0.0, SVG Export Plug-In . SVG Version: 6.00 Build 0)  -->
<svg version="1.1" id="Layer_1" xmlns="http://www.w3.org/2000/svg" xmlns:xlink="http://www.w3.org/1999/xlink" x="0px" y="0px"
	 viewBox="0 0 200 200" style="enable-background:new 0 0 200 200;" xml:space="preserve">
<style type="text/css">
	.st0{fill:none;}
	.st1{fill:#626262;}
	.st2{fill:#525252;}
	.st3{fill:#FFFFFF;}
</style>
<path class="st0" d="M183.56,80.27V29.57c0-7.26-5.9-13.16-13.16-13.16h-51.94c-0.06,0-0.12,0.02-0.19,0.02s-0.12-0.02-0.19-0.02
	H29.39c-7.26,0-13.16,5.9-13.16,13.16v141.01c0,7.26,5.9,13.16,13.16,13.16H170.4c7.26,0,13.16-5.9,13.16-13.16V80.53
	c0-0.04-0.01-0.09-0.01-0.13C183.55,80.36,183.56,80.32,183.56,80.27z"/>
<path class="st1" d="M202.78,80.16c0-0.04-0.01-0.09-0.01-0.13v0.26C202.76,80.25,202.78,80.21,202.78,80.16z"/>
<path class="st1" d="M183.91,80.16c0,0.04,0.01,0.09,0.01,0.13v-0.26C183.92,80.08,183.91,80.12,183.91,80.16z"/>
<path class="st2" d="M117.93,0c-0.03,0-0.05,0.01-0.07,0.01H118C117.98,0.01,117.95,0,117.93,0z"/>
<path class="st2" d="M118.69,16.04h-0.38c0.06,0,0.12,0.02,0.19,0.02C118.57,16.06,118.63,16.04,118.69,16.04z"/>
<path d="M192.96,73.55c-3.72,0-6.79,3.03-6.84,6.76v90.27c0,8.67-7.05,15.72-15.72,15.72H29.39c-8.67,0-15.72-7.05-15.72-15.72
	V29.57c0-8.67,7.05-15.72,15.72-15.72h89.07c3.65-0.07,6.66-3.14,6.66-6.83c0-3.74-3.05-6.81-6.8-6.84H29.39
	c-16.21,0-29.4,13.19-29.4,29.4v141.01c0,16.21,13.19,29.4,29.4,29.4H170.4c16.21,0,29.4-13.19,29.4-29.4v-90.3
	C199.75,76.58,196.68,73.55,192.96,73.55z"/>
<path class="st0" d="M185.69,14.14c-2.79-2.78-5.58-5.56-8.38-8.33c-0.24-0.24-0.49-0.47-0.74-0.69c0.25,0.22,0.5,0.45,0.74,0.69
	C180.11,8.57,182.9,11.35,185.69,14.14z"/>
<path class="st0" d="M182.7,55.71c3.88-3.88,7.75-7.75,11.63-11.63c1.13-1.13,2.05-2.36,2.77-3.67c-0.72,1.31-1.64,2.53-2.77,3.67
	C190.45,47.96,186.57,51.83,182.7,55.71z"/>
<path class="st0" d="M59.39,141.65c-0.13,0.02-0.26,0.02-0.4,0.02C59.13,141.67,59.26,141.66,59.39,141.65z"/>
<path class="st0" d="M58.86,141.67c-0.1,0-0.21,0-0.32-0.01C58.65,141.67,58.76,141.67,58.86,141.67z"/>
<path class="st0" d="M169.29,1.52c0.38,0.07,0.75,0.16,1.12,0.27C170.05,1.68,169.67,1.59,169.29,1.52z"/>
<path class="st0" d="M170.7,1.87c0.28,0.08,0.57,0.18,0.85,0.28C171.26,2.05,170.98,1.95,170.7,1.87z"/>
<path class="st0" d="M168.15,1.34c0.3,0.03,0.6,0.08,0.9,0.13C168.75,1.42,168.45,1.38,168.15,1.34z"/>
<path class="st0" d="M171.91,2.29c0.26,0.1,0.52,0.21,0.78,0.33C172.43,2.5,172.17,2.39,171.91,2.29z"/>
<path class="st0" d="M173.03,2.77c0.36,0.17,0.72,0.36,1.07,0.56C173.75,3.13,173.39,2.95,173.03,2.77z"/>
<path class="st0" d="M58.01,141.65L58.01,141.65c0.12-1.01,0.24-2,0.36-3C58.25,139.65,58.13,140.64,58.01,141.65z"/>
<path class="st0" d="M162.95,12.18c0.12-0.09,0.24-0.19,0.36-0.27C163.19,11.99,163.07,12.09,162.95,12.18z"/>
<path class="st0" d="M163.52,11.78c0.11-0.07,0.22-0.15,0.34-0.21C163.74,11.63,163.63,11.71,163.52,11.78z"/>
<path class="st0" d="M62.22,112.85c-0.25,0.36-0.44,0.8-0.5,1.21c-0.51,3.6-1.01,7.21-1.5,10.82c0.49-3.61,0.99-7.21,1.5-10.82
	C61.78,113.65,61.96,113.21,62.22,112.85z"/>
<path class="st0" d="M162.27,12.77c0.17-0.16,0.34-0.32,0.51-0.46C162.61,12.45,162.44,12.61,162.27,12.77z"/>
<path class="st0" d="M146.76,28.25c0.02-0.01,0.02-0.02,0.03-0.02C146.78,28.23,146.78,28.23,146.76,28.25z"/>
<path class="st0" d="M146.61,28.38c-28.05,28.04-56.09,56.08-84.12,84.15c-0.1,0.1-0.19,0.21-0.27,0.33
	c0.08-0.12,0.18-0.23,0.27-0.33C90.52,84.46,118.56,56.42,146.61,28.38z"/>
<path class="st0" d="M166.97,1.25c0.27,0.01,0.54,0.03,0.81,0.05C167.51,1.28,167.24,1.26,166.97,1.25z"/>
<path class="st0" d="M48.15,149.68c-0.02-0.05-0.05-0.1-0.07-0.15C48.1,149.59,48.12,149.64,48.15,149.68z"/>
<path class="st0" d="M48.69,150.54c-0.02-0.03-0.05-0.06-0.08-0.09C48.63,150.49,48.66,150.51,48.69,150.54z"/>
<path class="st0" d="M47.79,148.63c-0.01-0.06-0.02-0.11-0.03-0.17C47.77,148.52,47.78,148.57,47.79,148.63z"/>
<path class="st0" d="M49.35,151.19C49.35,151.19,49.35,151.19,49.35,151.19C49.35,151.19,49.35,151.19,49.35,151.19z"/>
<path class="st0" d="M164.09,11.45c0.11-0.06,0.22-0.12,0.33-0.16C164.3,11.34,164.19,11.4,164.09,11.45z"/>
<path class="st0" d="M52.55,152.12c0.04,0,0.09-0.01,0.13-0.01c-0.07,0-0.14,0-0.21,0C52.5,152.11,52.52,152.12,52.55,152.12z"/>
<path class="st0" d="M47.65,147.39c0-0.05,0-0.1,0-0.15C47.65,147.29,47.65,147.34,47.65,147.39z"/>
<path class="st0" d="M50.28,151.71c-0.04-0.02-0.07-0.03-0.11-0.05C50.21,151.68,50.25,151.7,50.28,151.71z"/>
<path class="st0" d="M51.4,152.02c-0.06-0.01-0.11-0.02-0.17-0.03C51.28,152,51.34,152.01,51.4,152.02z"/>
<path class="st0" d="M161.85,1.96c0.1-0.03,0.2-0.05,0.3-0.08C162.05,1.9,161.95,1.93,161.85,1.96z"/>
<path class="st0" d="M164.64,1.36c0.17-0.02,0.34-0.04,0.51-0.05C164.98,1.32,164.81,1.34,164.64,1.36z"/>
<path class="st0" d="M163.23,1.59c0.16-0.03,0.32-0.06,0.48-0.09C163.55,1.53,163.39,1.56,163.23,1.59z"/>
<path class="st0" d="M166.43,1.24c-0.11,0-0.22,0.01-0.33,0.02c0.17,0,0.34-0.01,0.51-0.01C166.55,1.24,166.49,1.24,166.43,1.24z"/>
<path class="st0" d="M157.45,4.16c0.15-0.1,0.3-0.2,0.45-0.3C157.75,3.96,157.6,4.06,157.45,4.16z"/>
<path class="st0" d="M160.18,2.61c0.11-0.05,0.22-0.11,0.33-0.15C160.4,2.5,160.29,2.56,160.18,2.61z"/>
<path class="st0" d="M156.23,5.1c0.12-0.11,0.25-0.2,0.38-0.3C156.49,4.9,156.36,4.99,156.23,5.1z"/>
<path class="st0" d="M158.74,3.34c0.15-0.09,0.3-0.17,0.45-0.25C159.04,3.17,158.89,3.26,158.74,3.34z"/>
<path class="st0" d="M188.63,30.24c0.19,0.34,0.35,0.7,0.46,1.05C188.98,30.94,188.83,30.59,188.63,30.24z"/>
<path class="st0" d="M166.39,10.81c0.11-0.01,0.22-0.02,0.33-0.02C166.61,10.79,166.5,10.8,166.39,10.81z"/>
<path class="st0" d="M168.19,11c0.09,0.02,0.17,0.04,0.26,0.07C168.36,11.04,168.27,11.02,168.19,11z"/>
<path class="st0" d="M169.31,11.44c0.08,0.04,0.16,0.08,0.24,0.12C169.47,11.51,169.39,11.48,169.31,11.44z"/>
<path class="st0" d="M167.02,10.81c0.09,0,0.18,0.01,0.28,0.01C167.21,10.81,167.12,10.81,167.02,10.81z"/>
<path class="st0" d="M169.87,11.76c0.07,0.05,0.14,0.09,0.21,0.14C170.02,11.84,169.94,11.8,169.87,11.76z"/>
<path class="st0" d="M167.61,10.87c0.09,0.01,0.17,0.02,0.26,0.04C167.79,10.9,167.7,10.89,167.61,10.87z"/>
<path class="st0" d="M168.75,11.18c0.08,0.03,0.17,0.06,0.25,0.1C168.92,11.24,168.84,11.22,168.75,11.18z"/>
<path class="st0" d="M189.24,31.83c0.08,0.36,0.12,0.72,0.11,1.08C189.36,32.55,189.32,32.18,189.24,31.83z"/>
<path class="st0" d="M170.47,12.19c0.04,0.04,0.09,0.07,0.13,0.1C170.56,12.25,170.51,12.22,170.47,12.19z"/>
<path class="st0" d="M177.28,44.36c0.49,0.49,0.98,0.98,1.47,1.47h0C178.25,45.34,177.77,44.85,177.28,44.36L177.28,44.36z"/>
<path class="st0" d="M182.46,39.13l-4.09,4.09l0.02,0.02c0.4-0.4,0.81-0.8,1.21-1.21c1.99-1.99,4.05-4.05,6.05-6.08
	c1.72-1.75,1.72-3.68,0.01-5.43c-5.67-5.82-10.91-11.16-16.01-16.32c-0.87-0.88-1.88-1.35-2.91-1.35c-1.05,0-2.1,0.48-3.02,1.39
	c-2.16,2.13-4.34,4.32-6.45,6.43l-0.72,0.73l0.02,0.02l4.09-4.09L182.46,39.13z"/>
<path class="st0" d="M164.66,11.2c0.11-0.04,0.21-0.09,0.32-0.12C164.87,11.11,164.77,11.15,164.66,11.2z"/>
<path class="st0" d="M165.24,11.01c0.11-0.03,0.21-0.06,0.32-0.09C165.45,10.94,165.34,10.98,165.24,11.01z"/>
<path class="st0" d="M165.81,10.88c0.11-0.02,0.22-0.04,0.33-0.05C166.03,10.84,165.92,10.86,165.81,10.88z"/>
<path d="M167.68,54.1l-14.04,14.04c-22.73,22.73-45.47,45.47-68.18,68.22c-0.59,0.59-1.05,0.84-1.77,0.93
	c-5.87,0.76-11.83,1.57-17.6,2.35c-2.24,0.3-4.48,0.61-6.73,0.91c0.14-1.16,0.28-2.32,0.44-3.47c1.08-8.02,1.99-14.7,2.97-21.63
	c0.01-0.09,0.11-0.29,0.19-0.37c27.61-27.64,55.69-55.72,82.86-82.88l0.02,0.02l1.45-1.45c-0.48-0.48-0.97-0.97-1.45-1.45
	c0,0-0.02,0.01-0.03,0.02c-0.01,0.01-0.02,0.01-0.03,0.02c-0.04,0.03-0.1,0.08-0.15,0.13c-28.05,28.04-56.09,56.08-84.12,84.15
	c-0.1,0.1-0.19,0.21-0.27,0.33c-0.25,0.36-0.44,0.8-0.5,1.21c-0.51,3.6-1.01,7.21-1.5,10.82c-0.49,3.61-0.98,7.22-1.47,10.82
	c-0.13,0.98-0.26,1.97-0.38,2.96c-0.12,0.99-0.24,1.99-0.36,3c0.2,0,0.37,0,0.53,0.01c0.12,0,0.22,0.01,0.32,0.01
	c0.05,0,0.09,0,0.14,0c0.14,0,0.27-0.01,0.4-0.02c0,0,0,0,0,0c4.26-0.57,8.51-1.15,12.76-1.73c4.25-0.58,8.51-1.15,12.77-1.7
	c0.31-0.04,0.59-0.1,0.86-0.18c0.8-0.25,1.45-0.69,2.1-1.33c27.56-27.6,55.15-55.18,82.73-82.76c0.38-0.38,0.75-0.78,0.93-0.97
	c-0.48-0.48-0.96-0.96-1.44-1.44L167.68,54.1L167.68,54.1z"/>
<path d="M193.37,23.32c-2.78-2.79-5.56-5.58-8.34-8.37c-2.79-2.78-5.58-5.56-8.38-8.33c-0.24-0.24-0.49-0.47-0.74-0.69
	c-0.51-0.45-1.05-0.86-1.61-1.24c-0.28-0.19-0.57-0.37-0.86-0.54c0,0,0,0-0.01,0c-0.35-0.2-0.71-0.39-1.07-0.56
	c-0.11-0.05-0.22-0.1-0.34-0.15c-0.26-0.12-0.52-0.23-0.78-0.33c-0.12-0.05-0.25-0.1-0.37-0.14c-0.28-0.1-0.56-0.19-0.85-0.28
	c-0.09-0.03-0.18-0.06-0.28-0.08c-0.37-0.1-0.75-0.19-1.12-0.27c-0.08-0.02-0.17-0.03-0.25-0.04c-0.3-0.05-0.6-0.1-0.9-0.13
	c-0.12-0.01-0.25-0.03-0.37-0.04c-0.27-0.02-0.54-0.04-0.81-0.05c-0.12,0-0.24-0.01-0.36-0.01c-0.17,0-0.34,0.01-0.51,0.01
	c-0.32,0.01-0.64,0.02-0.96,0.05c-0.17,0.01-0.34,0.03-0.51,0.05c-0.31,0.04-0.62,0.09-0.93,0.14c-0.16,0.03-0.32,0.06-0.48,0.09
	c-0.36,0.08-0.72,0.18-1.08,0.28c-0.1,0.03-0.2,0.05-0.3,0.08c-0.45,0.14-0.9,0.31-1.35,0.5c-0.11,0.05-0.22,0.1-0.33,0.15
	c-0.33,0.15-0.66,0.31-0.99,0.48c-0.15,0.08-0.3,0.17-0.45,0.25c-0.28,0.16-0.57,0.34-0.84,0.52c-0.15,0.1-0.3,0.2-0.45,0.3
	c-0.28,0.2-0.56,0.41-0.84,0.63c-0.13,0.1-0.26,0.2-0.38,0.3c-0.39,0.33-0.78,0.68-1.15,1.05c-33.08,33.07-66.13,66.16-99.26,99.17
	c-0.59,0.59-1.1,1.18-1.55,1.8c-0.67,0.92-1.19,1.89-1.58,2.93c-0.26,0.69-0.46,1.42-0.61,2.19c-0.07,0.39-0.13,0.78-0.18,1.19
	c-0.32,2.73-0.66,5.45-1,8.17c-0.69,5.45-1.42,10.89-2.16,16.33c-0.37,2.72-0.74,5.44-1.11,8.16c-0.06,0.44-0.08,0.86-0.08,1.26
	c0,0.05,0,0.1,0,0.15c0.01,0.38,0.05,0.73,0.11,1.06c0.01,0.06,0.02,0.12,0.03,0.17c0.07,0.32,0.17,0.63,0.29,0.91
	c0.02,0.05,0.04,0.1,0.07,0.15c0.13,0.28,0.28,0.54,0.46,0.77c0.02,0.03,0.05,0.06,0.08,0.09c0.2,0.24,0.41,0.46,0.66,0.64
	c0,0,0,0,0.01,0c0.25,0.19,0.53,0.34,0.82,0.47c0.04,0.02,0.07,0.03,0.11,0.05c0.29,0.12,0.61,0.21,0.94,0.27
	c0.06,0.01,0.11,0.02,0.17,0.03c0.34,0.06,0.69,0.09,1.07,0.09c0.07,0,0.14,0,0.21,0c0.35-0.01,0.71-0.03,1.09-0.08
	c11.48-1.54,22.95-3.1,34.44-4.54c2.13-0.27,3.75-1.11,5.23-2.59c29.65-29.68,59.32-59.34,88.98-89.01
	c3.87-3.87,7.74-7.73,11.6-11.6c1.13-1.13,2.05-2.35,2.77-3.66c1.2-2.18,1.82-4.6,1.91-7.26C197.86,30.02,196.38,26.34,193.37,23.32
	z M170.44,13.56c5.36,5.42,10.7,10.87,16.02,16.33C181.14,24.43,175.8,18.99,170.44,13.56c-0.16-0.16-0.33-0.32-0.5-0.46
	C170.11,13.25,170.27,13.4,170.44,13.56z M166.06,11.61c0.1,0,0.2,0.01,0.29,0.02C166.26,11.62,166.16,11.61,166.06,11.61
	C166.06,11.61,166.06,11.61,166.06,11.61z M177.73,46.95c-0.49-0.49-0.98-0.98-1.47-1.47l-7.16,7.16c0.48,0.48,0.96,0.96,1.43,1.44
	c-0.18,0.18-0.54,0.58-0.93,0.97c-27.53,27.53-55.06,55.05-82.57,82.6c-0.64,0.64-1.29,1.08-2.09,1.33
	c-0.27,0.08-0.55,0.14-0.86,0.18c-4.25,0.55-8.5,1.12-12.74,1.69c-4.25,0.57-8.49,1.15-12.74,1.73c0,0,0,0,0,0
	c-0.13,0.02-0.26,0.02-0.4,0.02c-0.01,0-0.02,0-0.04,0c-0.03,0-0.07,0-0.1,0c-0.1,0-0.21,0-0.32-0.01c-0.16,0-0.33-0.01-0.53-0.01v0
	c0.12-1.01,0.24-2,0.36-2.99c0.12-0.99,0.24-1.97,0.38-2.95c0.49-3.6,0.97-7.2,1.47-10.8c0.49-3.6,0.99-7.2,1.5-10.8
	c0.06-0.41,0.24-0.85,0.5-1.21c0.08-0.12,0.18-0.23,0.27-0.33c27.97-28.01,55.96-55.99,83.95-83.98c0.05-0.05,0.11-0.1,0.15-0.13
	c0.02-0.02,0.02-0.02,0.03-0.02c0.01-0.01,0.03-0.02,0.03-0.02c0,0,0,0,0,0c0.48,0.48,0.96,0.97,1.45,1.45l7.13-7.13l1.45-1.45
	l-0.02-0.02l0.72-0.73c2.11-2.12,4.29-4.31,6.45-6.43c0.92-0.91,1.96-1.39,3.02-1.39c1.03,0,2.04,0.47,2.91,1.35
	c5.1,5.16,10.34,10.5,16.01,16.32c1.71,1.75,1.71,3.68-0.01,5.43c-2,2.04-4.06,4.09-6.05,6.08c-0.4,0.4-0.81,0.8-1.21,1.21
	l-0.02-0.02l-1.45,1.45C176.75,45.97,177.23,46.46,177.73,46.95L177.73,46.95z M188.2,32.97c0.08,0.36,0.11,0.72,0.11,1.08
	C188.32,33.69,188.28,33.33,188.2,32.97z"/>
<path d="M199.99,34.23c-0.1-4.85-1.84-9.01-5.17-12.36c-5.02-5.04-10.87-10.91-16.74-16.71c-1.1-1.09-2.35-2.05-3.62-2.78
	c-2.69-1.55-5.69-2.38-8.7-2.38h0c-4.7,0-9.24,1.96-12.8,5.51c-7.81,7.81-15.63,15.62-23.44,23.44
	c-24.83,24.84-50.51,50.52-75.82,75.73c-2.67,2.66-4.06,5.53-4.51,9.32c-1.11,9.42-2.41,18.99-3.67,28.24l-0.59,4.38
	c-0.44,3.25,0.58,5.21,1.51,6.27c0.87,0.99,2.5,2.18,5.33,2.18c0.48,0,0.98-0.03,1.49-0.1l6.12-0.82
	c9.28-1.24,18.87-2.53,28.31-3.72c2.54-0.32,4.58-1.33,6.43-3.18c24.6-24.63,49.22-49.25,73.84-73.86l15.14-15.14l3.05-3.05
	c2.85-2.85,5.7-5.7,8.55-8.55c3.35-3.35,5.12-7.49,5.27-12.31l0-0.05L199.99,34.23z M196.04,41.54c-0.72,1.31-1.64,2.53-2.77,3.66
	c-3.86,3.87-7.73,7.74-11.6,11.6c-29.66,29.67-59.33,59.33-88.98,89.01c-1.48,1.48-3.1,2.32-5.23,2.59
	c-11.49,1.44-22.97,3-34.44,4.54c-0.38,0.05-0.74,0.07-1.09,0.08c-0.04,0-0.09,0.01-0.13,0.01c-0.03,0-0.05-0.01-0.08-0.01
	c-0.38,0-0.73-0.03-1.07-0.09c-0.06-0.01-0.11-0.02-0.17-0.03c-0.33-0.07-0.65-0.16-0.94-0.27c-0.04-0.02-0.07-0.03-0.11-0.05
	c-0.3-0.13-0.58-0.28-0.82-0.47c0,0,0,0-0.01,0c-0.25-0.19-0.46-0.41-0.66-0.64c-0.02-0.03-0.05-0.06-0.08-0.09
	c-0.18-0.23-0.33-0.49-0.46-0.77c-0.02-0.05-0.05-0.1-0.07-0.15c-0.12-0.28-0.22-0.58-0.29-0.91c-0.01-0.06-0.02-0.11-0.03-0.17
	c-0.06-0.34-0.1-0.69-0.11-1.06c0-0.05,0-0.1,0-0.15c0-0.4,0.02-0.82,0.08-1.26c0.37-2.72,0.74-5.44,1.11-8.16
	c0.74-5.44,1.47-10.88,2.16-16.33c0.35-2.72,0.68-5.45,1-8.17c0.05-0.41,0.11-0.8,0.18-1.19c0.15-0.77,0.35-1.5,0.61-2.19
	c0.39-1.04,0.91-2.01,1.58-2.93c0.45-0.61,0.96-1.21,1.55-1.8c33.13-33.01,66.18-66.1,99.26-99.17c0.37-0.37,0.76-0.72,1.15-1.05
	c0.12-0.11,0.25-0.2,0.38-0.3c0.28-0.22,0.55-0.43,0.84-0.63c0.15-0.1,0.3-0.2,0.45-0.3c0.28-0.18,0.56-0.35,0.84-0.52
	c0.15-0.09,0.3-0.17,0.45-0.25c0.32-0.17,0.65-0.33,0.99-0.48c0.11-0.05,0.22-0.11,0.33-0.15c0.44-0.19,0.89-0.35,1.35-0.5
	c0.1-0.03,0.2-0.05,0.3-0.08c0.36-0.11,0.72-0.2,1.08-0.28c0.16-0.03,0.32-0.06,0.48-0.09c0.31-0.06,0.62-0.11,0.93-0.14
	c0.17-0.02,0.34-0.04,0.51-0.05c0.32-0.03,0.64-0.04,0.96-0.05c0.11,0,0.22-0.02,0.33-0.02c0.06,0,0.12,0.01,0.18,0.01
	c0.12,0,0.24,0.01,0.36,0.01c0.27,0.01,0.54,0.03,0.81,0.05c0.12,0.01,0.25,0.02,0.37,0.04c0.3,0.03,0.6,0.08,0.9,0.13
	c0.08,0.01,0.17,0.03,0.25,0.04c0.38,0.07,0.75,0.16,1.12,0.27c0.09,0.03,0.18,0.06,0.28,0.08c0.28,0.08,0.57,0.18,0.85,0.28
	C171,3,171.12,3.05,171.25,3.1c0.26,0.1,0.52,0.21,0.78,0.33c0.11,0.05,0.22,0.1,0.34,0.15c0.36,0.17,0.72,0.36,1.07,0.56
	c0,0,0,0,0.01,0c0.29,0.17,0.58,0.35,0.86,0.54c0.56,0.38,1.1,0.8,1.61,1.24c0.25,0.22,0.5,0.45,0.74,0.69
	c2.8,2.77,5.59,5.55,8.38,8.33c2.79,2.78,5.57,5.58,8.34,8.37c3.01,3.02,4.49,6.7,4.58,10.96
	C197.86,36.94,197.23,39.36,196.04,41.54z"/>
<path d="M156.61,4.8c0.28-0.22,0.55-0.43,0.84-0.63C157.17,4.36,156.89,4.58,156.61,4.8z"/>
<path d="M157.9,3.86c0.28-0.18,0.56-0.35,0.84-0.52C158.46,3.51,158.18,3.68,157.9,3.86z"/>
<path d="M155.08,6.15c0.37-0.37,0.76-0.72,1.15-1.05C155.84,5.43,155.46,5.78,155.08,6.15z"/>
<path d="M54.38,106.93c0.45-0.62,0.96-1.21,1.55-1.8C55.35,105.72,54.83,106.32,54.38,106.93z"/>
<path d="M52.8,109.87c0.39-1.04,0.91-2.01,1.58-2.93C53.71,107.86,53.19,108.82,52.8,109.87z"/>
<path d="M164.98,11.07c0.08-0.03,0.17-0.05,0.25-0.07C165.15,11.03,165.07,11.05,164.98,11.07z"/>
<path d="M162.15,1.87c0.36-0.11,0.72-0.2,1.08-0.28C162.87,1.67,162.51,1.77,162.15,1.87z"/>
<path d="M170.09,11.89c0.13,0.09,0.26,0.19,0.38,0.29C170.34,12.08,170.22,11.98,170.09,11.89z"/>
<path d="M162.78,12.31c0.05-0.05,0.11-0.08,0.17-0.13C162.89,12.23,162.84,12.26,162.78,12.31z"/>
<path d="M52.19,112.06c0.15-0.77,0.35-1.5,0.61-2.2C52.54,110.56,52.34,111.29,52.19,112.06z"/>
<path d="M187.13,29.08c-5.32-5.46-10.66-10.91-16.02-16.33c-0.16-0.16-0.33-0.32-0.5-0.46c0.17,0.14,0.34,0.3,0.5,0.46
	C176.46,18.18,181.8,23.62,187.13,29.08z"/>
<path d="M159.19,3.09c0.32-0.17,0.65-0.33,0.99-0.48C159.85,2.76,159.52,2.92,159.19,3.09z"/>
<path d="M163.31,11.91c0.07-0.05,0.14-0.09,0.21-0.13C163.45,11.82,163.38,11.86,163.31,11.91z"/>
<path d="M51.23,151.99c-0.33-0.07-0.65-0.16-0.94-0.27C50.58,151.83,50.89,151.92,51.23,151.99z"/>
<path d="M50.18,151.66c-0.3-0.13-0.58-0.28-0.83-0.47C49.6,151.38,49.88,151.53,50.18,151.66z"/>
<path d="M48.84,137.8c0.74-5.45,1.47-10.9,2.16-16.36C50.31,126.9,49.58,132.35,48.84,137.8z"/>
<path d="M164.41,11.29c0.08-0.04,0.16-0.06,0.25-0.09C164.58,11.23,164.5,11.25,164.41,11.29z"/>
<path d="M53.78,152.03c-0.38,0.05-0.74,0.07-1.09,0.08C53.03,152.1,53.4,152.08,53.78,152.03z"/>
<path d="M163.71,1.5c0.31-0.06,0.62-0.11,0.93-0.14C164.33,1.39,164.02,1.44,163.71,1.5z"/>
<path d="M52.47,152.11c-0.38,0-0.73-0.04-1.07-0.09C51.73,152.08,52.09,152.11,52.47,152.11z"/>
<path d="M49.35,151.19c-0.25-0.19-0.46-0.41-0.66-0.64C48.88,150.78,49.1,151,49.35,151.19z"/>
<path d="M47.76,148.46c-0.06-0.34-0.1-0.69-0.11-1.07C47.66,147.77,47.7,148.12,47.76,148.46z"/>
<path d="M48.08,149.54c-0.12-0.28-0.22-0.59-0.29-0.91C47.86,148.95,47.96,149.26,48.08,149.54z"/>
<path d="M48.61,150.46c-0.18-0.23-0.33-0.49-0.46-0.77C48.28,149.96,48.43,150.22,48.61,150.46z"/>
<path d="M163.86,11.57c0.08-0.04,0.15-0.08,0.23-0.11C164.01,11.49,163.93,11.53,163.86,11.57z"/>
<path d="M160.51,2.46c0.44-0.19,0.89-0.35,1.35-0.5C161.4,2.1,160.95,2.27,160.51,2.46z"/>
<path d="M167.3,10.82c0.1,0.01,0.21,0.03,0.31,0.05C167.51,10.86,167.4,10.83,167.3,10.82z"/>
<path d="M48.84,137.8c-0.37,2.73-0.74,5.45-1.11,8.18c-0.06,0.44-0.08,0.86-0.08,1.27c0-0.4,0.02-0.82,0.08-1.27
	C48.1,143.26,48.47,140.53,48.84,137.8z"/>
<path d="M189.36,32.91c0,0.36-0.04,0.72-0.12,1.08C189.32,33.63,189.36,33.27,189.36,32.91z"/>
<path d="M189.24,33.98c-0.08,0.36-0.2,0.71-0.35,1.06C189.04,34.7,189.16,34.34,189.24,33.98z"/>
<path d="M167.87,10.91c0.1,0.02,0.21,0.05,0.31,0.08C168.08,10.97,167.98,10.94,167.87,10.91z"/>
<path d="M166.14,10.83c0.09-0.01,0.17-0.01,0.26-0.01C166.31,10.82,166.22,10.82,166.14,10.83z"/>
<path d="M174.96,3.87c-0.28-0.19-0.57-0.37-0.86-0.54c0,0,0,0-0.01,0c0,0,0,0,0.01,0C174.39,3.51,174.68,3.68,174.96,3.87z"/>
<path d="M178.75,45.83c1.46-1.47,2.93-2.92,4.38-4.38C181.67,42.91,180.21,44.36,178.75,45.83L178.75,45.83z"/>
<path d="M166.73,10.79C166.73,10.79,166.72,10.79,166.73,10.79c0.09,0,0.19,0.01,0.29,0.02C166.93,10.8,166.83,10.79,166.73,10.79z"
	/>
<path d="M58.01,141.65c0.2,0,0.37,0,0.53,0.01C58.37,141.66,58.2,141.65,58.01,141.65L58.01,141.65z"/>
<path d="M188.89,35.05c-0.16,0.35-0.35,0.69-0.58,1.03C188.53,35.74,188.73,35.4,188.89,35.05z"/>
<path d="M58.96,141.67c0.01,0,0.02,0,0.04,0c-0.04,0-0.09,0-0.14,0C58.89,141.67,58.93,141.67,58.96,141.67z"/>
<path d="M172.69,2.62c0.11,0.05,0.22,0.1,0.34,0.15C172.92,2.72,172.8,2.67,172.69,2.62z"/>
<path d="M165.56,10.92c0.08-0.02,0.17-0.03,0.26-0.04C165.73,10.89,165.64,10.9,165.56,10.92z"/>
<path d="M166.61,1.24c0.12,0,0.24,0.01,0.36,0.01C166.85,1.25,166.73,1.24,166.61,1.24z"/>
<path d="M72.16,139.92c4.25-0.58,8.51-1.15,12.77-1.7c0.31-0.04,0.59-0.1,0.86-0.18c-0.27,0.08-0.55,0.14-0.86,0.18
	C80.67,138.77,76.41,139.34,72.16,139.92z"/>
<path d="M167.78,1.31c0.12,0.01,0.25,0.02,0.37,0.04C168.03,1.33,167.9,1.32,167.78,1.31z"/>
<path d="M169.05,1.48c0.08,0.01,0.17,0.03,0.25,0.04C169.21,1.5,169.13,1.49,169.05,1.48z"/>
<path d="M169,11.28c0.1,0.05,0.21,0.1,0.31,0.16C169.21,11.38,169.11,11.33,169,11.28z"/>
<path d="M165.15,1.3c0.32-0.03,0.64-0.04,0.96-0.05C165.78,1.26,165.47,1.28,165.15,1.3z"/>
<path d="M169.55,11.56c0.11,0.06,0.21,0.13,0.32,0.2C169.77,11.69,169.66,11.62,169.55,11.56z"/>
<path d="M146.61,28.38c0.05-0.05,0.11-0.1,0.15-0.13C146.72,28.28,146.66,28.32,146.61,28.38z"/>
<path d="M170.42,1.78c0.09,0.03,0.18,0.06,0.28,0.08C170.6,1.84,170.51,1.81,170.42,1.78z"/>
<path d="M171.54,2.15c0.12,0.04,0.25,0.09,0.37,0.14C171.79,2.24,171.67,2.19,171.54,2.15z"/>
<path d="M146.82,28.2c0,0-0.02,0.02-0.03,0.02C146.8,28.21,146.83,28.2,146.82,28.2C146.82,28.2,146.82,28.2,146.82,28.2z"/>
<path d="M168.44,11.07c0.1,0.03,0.2,0.08,0.31,0.12C168.65,11.14,168.55,11.1,168.44,11.07z"/>
<path d="M59.39,141.65C59.39,141.65,59.39,141.65,59.39,141.65c4.26-0.57,8.51-1.15,12.77-1.73
	C67.9,140.49,63.65,141.07,59.39,141.65C59.39,141.65,59.39,141.65,59.39,141.65z"/>
<g>
	<path class="st3" d="M166.36,33.44c3.62,3.62,7.26,7.26,10.92,10.92l0,0C173.62,40.7,169.98,37.06,166.36,33.44z"/>
</g>
</svg>
