<?xml version="1.0" encoding="utf-8"?>
<!-- Generator: Adobe Illustrator 23.0.0, SVG Export Plug-In . SVG Version: 6.00 Build 0)  -->
<svg version="1.1" id="Layer_1" xmlns="http://www.w3.org/2000/svg" xmlns:xlink="http://www.w3.org/1999/xlink" x="0px" y="0px"
	 viewBox="0 0 100 100" style="enable-background:new 0 0 100 100;" xml:space="preserve">
<style type="text/css">
	.st0{fill:#000000; fill-opacity: 75%;}
</style>
<path class="st0" d="M36.89,74.69c0-6.59-0.18-13.19,0.08-19.77c0.14-3.61-0.64-5.07-4.67-4.95c-8.06,0.25-7.05,1.24-7.16-7.29
	c-0.02-1.18,0-2.37,0-3.55c0.01-8.4,0-8.5,8.56-8.9c2.39-0.11,3.36-0.77,3.23-3.21c-0.15-2.7-0.09-5.41,0-8.11
	c0.32-9.56,6.93-16.99,16.31-18.43c5.55-0.85,11.14-0.25,16.7-0.47c2.3-0.09,2.91,1.05,2.82,3.1c-0.1,2.02,0.04,4.06-0.02,6.08
	c-0.09,3.35,0.9,7.47-0.69,9.83c-1.6,2.36-5.97,0.53-9.11,0.87c-4.26,0.46-6.93,5.08-5.26,9.02c0.76,1.79,2.22,1.13,3.45,1.24
	c3.66,0.32,8.42-1.56,10.73,0.81c2.49,2.57,0.79,7.39,0.85,11.21c0.13,7.9,0.03,7.85-8.07,7.92c-7.96,0.07-7-1.21-7.03,6.9
	c-0.05,12.67-0.19,25.35,0.09,38.02c0.09,4.16-1.27,5.25-5.16,4.93c-3.86-0.32-7.78-0.24-11.65-0.01c-3.06,0.18-4.16-0.8-4.07-3.96
	C37.03,88.89,36.89,81.78,36.89,74.69z"/>
</svg>
