<?xml version="1.0" encoding="utf-8"?>
<!-- Generator: Adobe Illustrator 23.0.0, SVG Export Plug-In . SVG Version: 6.00 Build 0)  -->
<svg version="1.1" id="Layer_1" xmlns="http://www.w3.org/2000/svg" xmlns:xlink="http://www.w3.org/1999/xlink" x="0px" y="0px"
	 viewBox="0 0 100 100" style="enable-background:new 0 0 100 100;" xml:space="preserve">
<style type="text/css">
	.st0{fill:#000000;}
</style>
<path class="st0" d="M99.8,49.91C99.75,77.46,77.34,99.83,49.83,99.8C22.28,99.76-0.05,77.29,0,49.66C0.05,22.38,22.59-0.07,49.86,0
	C77.46,0.07,99.85,22.45,99.8,49.91z M66.73,30.97c-11.35,0.74-22.38,0.71-33.43,0.02c-1.05,5.43-1.78,12.79-1.81,18.19
	c12.37,0,24.56,0,37.09,0C67.96,43.75,67.36,36.43,66.73,30.97z M68.32,53.66c-12.37,0-24.56,0-36.76,0
	c-0.28,2.89,0.85,12.86,1.83,16.18c11-0.72,22.03-0.69,33.1,0C67.56,64.46,68.25,59.13,68.32,53.66z M65.04,26.53
	c-0.05-0.28-0.05-0.5-0.13-0.69c-1.16-2.9-2.17-7.19-3.53-10c-1.41-2.92-3.1-5.72-5.71-7.78c-1.56-1.23-3.2-2.29-5.28-2.41
	c-2.94-0.16-5.18,1.24-7.14,3.21c-4.1,4.12-6.3,9.3-8.07,14.71c-0.17,0.54-0.3,2.41-0.45,2.96C38.9,27.25,60.6,27.26,65.04,26.53z
	 M34.76,74.52c0.06,0.35,0.08,0.59,0.15,0.83c1.38,4.88,3.54,9.39,6.48,13.53c1.29,1.81,2.93,3.24,4.87,4.32
	c2.34,1.3,4.76,1.38,7.09,0.07c1.19-0.67,2.34-1.51,3.3-2.48c4.26-4.29,6.43-9.72,8.2-15.36c0.08-0.26,0.12-0.54,0.19-0.91
	C54.9,73.87,44.87,73.87,34.76,74.52z M27.56,30.64c-0.8-0.27-9.77-0.89-15.6-1.88c-0.14-0.29-0.85,0.02-1.01,0.33
	C7.88,34.7,6.17,42.72,5.74,49.17h20c0.22-2.79,0.38-5.51,0.68-8.22C26.72,38.2,27.17,33.46,27.56,30.64z M27.42,70.28
	c-0.62-5.61-1.22-11.09-1.82-16.61c-6.54,0-13.18,0-19.86,0c0.43,6.41,2.14,12.38,5.11,17.99c0.36,0.68,0.8,0.57,1.35,0.5
	c2.56-0.35,5.12-0.72,7.68-1.03C22.41,70.81,24.94,70.55,27.42,70.28z M74.2,49.17c6.54,0,13.16,0,19.77,0
	c0.04-0.13,0.08-0.2,0.07-0.27C93.59,42.68,91.9,34.8,89,29.26c-0.36-0.68-0.77-0.69-1.4-0.61c-3.21,0.44-6.43,0.86-9.65,1.26
	c-1.9,0.24-3.81,0.42-5.59,0.62C72.98,36.14,73.58,43.61,74.2,49.17z M72.36,70.25c0.2,0.03,0.44,0.09,0.69,0.12
	c4.95,0.61,9.9,1.22,14.86,1.78c0.36,0.04,0.8-0.18,0.98-0.5c1.91-3.43,3.3-7.07,4.12-10.9c0.5-2.32,0.79-4.69,1.18-7.09h-20
	C73.58,59.22,72.98,64.68,72.36,70.25z M86.21,24.53c-5.87-7.57-14.13-14.02-23.28-16.96c0.6,0.88,1.06,1.53,1.49,2.2
	c2.83,4.34,4.71,10.42,6.11,15.38c0.21,0.76,0.49,1.05,1.34,0.94c2.46-0.31,4.93-0.49,7.39-0.77
	C81.19,25.11,84.09,24.82,86.21,24.53z M36.88,92.23c-0.62-0.92-1.09-1.57-1.52-2.24c-2.8-4.32-4.67-9.04-6.07-13.97
	c-0.22-0.78-0.5-1.11-1.4-0.99c-3.29,0.42-6.59,0.73-9.88,1.1c-1.09,0.12-2.17,0.3-3.43,0.47C20.44,84.16,27.73,89.28,36.88,92.23z
	 M63.06,92.18c9.02-2.93,16.33-8.04,22.09-15.53c-0.37-0.09-0.61-0.18-0.85-0.21c-4.12-0.47-8.25-0.9-12.37-1.4
	c-0.85-0.1-1.2,0.12-1.41,0.96c-0.98,3.9-2.49,7.6-4.44,11.11C65.15,88.77,64.13,90.39,63.06,92.18z M13.05,24.43
	c0.22,0.09,0.32,0.16,0.42,0.17c4.42,0.5,10.44,1.02,14.86,1.47c0.25,0.03,0.69-0.39,0.8-0.69c0.83-2.29,1.43-6,2.44-8.2
	c1.48-3.23,3.25-6.34,4.87-9.45C27.72,10.52,18.84,16.96,13.05,24.43z"/>
</svg>
