<?xml version="1.0" encoding="utf-8"?>
<!-- Generator: Adobe Illustrator 23.0.0, SVG Export Plug-In . SVG Version: 6.00 Build 0)  -->
<svg version="1.1" id="Layer_1" xmlns="http://www.w3.org/2000/svg" xmlns:xlink="http://www.w3.org/1999/xlink" x="0px" y="0px"
	 viewBox="0 0 100 100" style="enable-background:new 0 0 100 100;" xml:space="preserve">
<style type="text/css">
	.st0{fill:#000000; fill-opacity: 75%;}
</style>
<path class="st0" d="M53.66,37.1c6.32-5.84,11.01-9.77,17.45-10.66c15.3-2.1,26.75,5.78,27.99,21.31
	c1.27,15.83,0.57,31.81,0.81,47.72c0.05,3.01-1.31,4.2-4.16,4.05c-0.26-0.01-0.51-0.01-0.77,0.01c-15.89,1.2-15.87,1.2-15.89-14.68
	c-0.01-8.99,0.14-17.98-0.17-26.96c-0.3-8.68-4.47-12.92-11.96-12.97c-7.71-0.04-12.52,4.64-12.73,13.25
	c-0.28,11.55-0.36,23.12,0.04,34.67c0.19,5.45-1.54,6.89-6.89,6.81c-13.61-0.2-13.62,0.07-13.62-13.83c0-16.69,0.42-33.4-0.2-50.08
	c-0.26-7.16,2.19-9.15,8.64-8.13c1.25,0.2,2.58,0.18,3.84,0C51.77,26.82,55.73,27.94,53.66,37.1z"/>
<path class="st0" d="M0.29,63.57c0-10.24,0.14-20.49-0.08-30.73c-0.09-4.02,1.3-5.15,5.28-5.3c15.64-0.59,15.64-0.73,15.64,14.9
	c0,16.9-0.18,33.8,0.11,50.7c0.08,5.05-1.47,6.54-6.51,6.55C0.29,99.7,0.29,99.92,0.29,85.84C0.29,78.42,0.29,70.99,0.29,63.57z"/>
<path class="st0" d="M10.88,21.93C4.86,22.06,0.1,17.47,0,11.45c-0.1-5.93,4.59-10.85,10.47-11c5.76-0.14,10.86,4.75,11,10.57
	C21.62,16.82,16.77,21.8,10.88,21.93z"/>
</svg>
