<?xml version="1.0" encoding="utf-8"?>
<!-- Generator: Adobe Illustrator 23.0.0, SVG Export Plug-In . SVG Version: 6.00 Build 0)  -->
<svg version="1.1" id="Layer_1" xmlns="http://www.w3.org/2000/svg" xmlns:xlink="http://www.w3.org/1999/xlink" x="0px" y="0px"
	 viewBox="0 0 99.64 24.64" style="enable-background:new 0 0 99.64 24.64;" xml:space="preserve">
<style type="text/css">
	.st0{fill:#000000;}
</style>
<g>
	<path class="st0" d="M0.99,0.02h18.23L18.3,5.24h-5.85L9.87,19.9H3.35L5.93,5.24H0.07L0.99,0.02z"/>
	<path class="st0" d="M23.49,14.35l4.08-8.92h5.52l-7.01,13.5c-2.31,4.47-3.16,5.88-8.27,5.88c-1.05,0-2.08-0.11-2.52-0.11l0.7-4
		c0.41,0,0.8,0.03,1.18,0.03c1.79,0,2.3-0.52,2-2.13L16.74,5.43h5.77L23.49,14.35z"/>
	<path class="st0" d="M39.83,5.43l-0.38,2.15h0.06c1.11-1.77,3.32-2.57,4.98-2.57c4.36,0,5.84,3.56,5.14,7.54
		c-1,5.69-4.9,7.76-8.13,7.76c-1.57,0-2.62-0.63-3.38-1.85L37,24.82h-5.74l3.41-19.39H39.83z M43.86,12.64
		c0.4-2.29-0.4-3.37-1.92-3.37c-1.38,0-2.55,1.33-2.89,3.26c-0.35,2.02,0.26,3.4,1.75,3.4C42.32,15.93,43.51,14.63,43.86,12.64z"/>
	<path class="st0" d="M61.11,5.02c5.11,0,7.73,3.01,6.94,7.51c-0.93,5.3-4.96,7.79-9.6,7.79s-7.78-2.54-6.92-7.48
		C52.41,7.81,56.22,5.02,61.11,5.02z M57.33,12.53c-0.48,2.73,0.33,3.92,1.8,3.92c1.55,0,2.69-1.19,3.17-3.92
		c0.37-2.13-0.28-3.73-1.79-3.65C58.55,8.88,57.62,10.9,57.33,12.53z"/>
	<path class="st0" d="M84.81,19.9h-5.33l0.37-2.13c-1.79,1.99-3.29,2.54-5.67,2.54c-3.15,0-4.85-1.93-4.13-6.08l1.55-8.81h5.75
		l-1.37,7.82c-0.35,1.99,0.23,2.62,1.61,2.62c1.66,0,2.4-1.24,2.79-3.48l1.22-6.96h5.74L84.81,19.9z"/>
	<path class="st0" d="M97.04,19.9c-7.61,0.41-8.43-0.11-7.55-5.11l1.06-6.05H88.5l0.58-3.31h2.13L92,0.93h5.66l-0.79,4.5h2.76
		l-0.58,3.31h-2.76l-0.92,5.25c-0.23,1.32-0.12,1.79,1.48,1.79h0.91L97.04,19.9z"/>
</g>
</svg>
