<?xml version="1.0" encoding="utf-8"?>
<!-- Generator: Adobe Illustrator 23.0.0, SVG Export Plug-In . SVG Version: 6.00 Build 0)  -->
<svg version="1.1" id="Layer_1" xmlns="http://www.w3.org/2000/svg" xmlns:xlink="http://www.w3.org/1999/xlink" x="0px" y="0px"
	 viewBox="0 0 100 100" style="enable-background:new 0 0 100 100;" xml:space="preserve">
<style type="text/css">
	.st0{fill:#FDFDFD;}
</style>
<path class="st0" d="M27.07,90.76c-0.14-12.75,4.61-24.57,7.12-36.82c0.88-4.3,1.38-8.17-0.18-12.6c-2.56-7.3,0.07-12.89,6.65-16.42
	c2.97-1.6,6.19-2.52,9.19-0.21c3.15,2.43,3.93,5.8,2.89,9.6c-1.42,5.23-3.07,10.4-4.24,15.68c-1.54,7,2.91,11.92,10.18,11.58
	c3.17-0.15,6.07-1.21,8.63-3.08c13.37-9.73,12.82-35.11-0.95-44.26c-9.53-6.33-21.82-5.69-32.25,1.67
	c-9.38,6.62-13.91,16.88-11.72,26.42c0.53,2.3,1.42,4.42,2.76,6.35c1.03,1.49,1.35,3.1,1.07,4.86c-0.81,5.28-2.93,6.22-7.37,3.3
	c-8.58-5.64-12.01-16.67-8.88-28.52C13.84,13.81,27.25,2.47,43.34,0.46c10.69-1.34,21.03,0.22,30.8,4.89
	c12.91,6.16,18.68,16.57,18.24,30.71c-0.61,19.51-13.32,35-30.58,37.22c-5,0.64-9.57-0.63-13.78-3.12
	c-2.21-1.31-3.16-0.97-3.91,1.43c-1.15,3.69-2.91,7.23-3.75,10.98c-1.52,6.75-6.26,11.26-10.43,16.19c-0.56,0.66-1.1,1.66-2.24,1.06
	c-0.84-0.44-0.59-1.35-0.6-2.08C27.05,95.41,27.07,93.09,27.07,90.76z"/>
</svg>
