<?xml version="1.0" encoding="utf-8"?>
<!-- Generator: Adobe Illustrator 23.0.0, SVG Export Plug-In . SVG Version: 6.00 Build 0)  -->
<svg version="1.1" id="Layer_1" xmlns="http://www.w3.org/2000/svg" xmlns:xlink="http://www.w3.org/1999/xlink" x="0px" y="0px"
	 viewBox="0 0 200 200" style="enable-background:new 0 0 200 200;" xml:space="preserve">
<style type="text/css">
	.st0{fill:#FFFFFF;}
	.st1{stroke:#000000;stroke-width:2;stroke-miterlimit:10;}
</style>
<circle class="st0" cx="100" cy="47.89" r="40.65"/>
<ellipse class="st0" cx="100" cy="149.66" rx="75.79" ry="43.27"/>
<g>
	<path d="M100,12.21c16.37,0,29.7,13.33,29.7,29.7S116.37,71.62,100,71.62S70.3,58.29,70.3,41.91S83.63,12.21,100,12.21 M100,0
		C76.85,0,58.08,18.77,58.08,41.92S76.85,83.84,100,83.84s41.92-18.77,41.92-41.92S123.15,0,100,0L100,0z"/>
</g>
<g>
	<path class="st1" d="M100,112.3c19.75,0,38.15,4.46,51.81,12.58c6.92,4.11,18.54,12.83,18.54,25.05s-11.61,20.94-18.54,25.05
		c-13.66,8.11-32.06,12.58-51.81,12.58s-38.15-4.46-51.81-12.58c-6.92-4.11-18.54-12.83-18.54-25.05s11.61-20.94,18.54-25.05
		C61.85,116.76,80.25,112.3,100,112.3 M100,101.12c-45.39,0-82.2,21.85-82.2,48.81s36.8,48.8,82.2,48.8s82.2-21.85,82.2-48.81
		S145.39,101.12,100,101.12L100,101.12z"/>
</g>
</svg>
