<?xml version="1.0" encoding="utf-8"?>
<!-- Generator: Adobe Illustrator 23.0.0, SVG Export Plug-In . SVG Version: 6.00 Build 0)  -->
<svg version="1.1" id="Layer_1" xmlns="http://www.w3.org/2000/svg" xmlns:xlink="http://www.w3.org/1999/xlink" x="0px" y="0px"
	 viewBox="0 0 200 200" style="enable-background:new 0 0 200 200;" xml:space="preserve">
<g>
	<path d="M100.24,199.79c-55.01,0-99.76-44.75-99.76-99.75c0-55.01,44.75-99.76,99.76-99.76S200,45.03,200,100.03
		C200,155.03,155.25,199.79,100.24,199.79z M100.24,21.73c-43.18,0-78.31,35.13-78.31,78.31c0,43.17,35.13,78.3,78.31,78.3
		s78.31-35.13,78.31-78.3C178.54,56.86,143.42,21.73,100.24,21.73z"/>
	<polygon points="118.53,134.54 89.51,104.35 89.51,44.15 110.97,44.15 110.97,95.72 134,119.68 	"/>
</g>
</svg>
