<?xml version="1.0" encoding="utf-8"?>
<!-- Generator: Adobe Illustrator 23.0.0, SVG Export Plug-In . SVG Version: 6.00 Build 0)  -->
<svg version="1.1" id="Layer_1" xmlns="http://www.w3.org/2000/svg" xmlns:xlink="http://www.w3.org/1999/xlink" x="0px" y="0px"
	 viewBox="0 0 100 100" style="enable-background:new 0 0 100 100;" xml:space="preserve">
<style type="text/css">
	.st0{fill:#000000; fill-opacity: 75%;}
	.st1{fill:#FECFC5;}
	.st2{fill:#FECFC5;}
	.st3{fill:#FECFC5;}
</style>
<path class="st0" d="M11.12,36.03c3.24-0.02,6.23,0.91,8.71,2.92c1.56,1.26,2.68,1.05,4.29,0.17c5.54-3.01,11.52-4.79,17.79-5.39
	c2.33-0.22,3.54-0.91,3.98-3.45c2.03-11.43,10.33-19.38,22.86-18.61c1.51,0.09,2.46-0.59,3.57-1.45c3.77-2.89,8.54-2.14,11.04,1.59
	c2.27,3.39,1.3,8.18-2.13,10.44c-3.59,2.37-8.34,1.44-10.54-2.55c-1.17-2.13-2.55-2.34-4.53-2.23c-7.51,0.42-13.49,6.04-14.57,13.6
	c-0.2,1.39-0.1,1.99,1.43,2.1c8.34,0.57,16.38,2.29,23.72,6.5c1.19,0.68,1.93,0.13,2.91-0.46c7.07-4.29,13.03-4.24,17.09,0.07
	c4.31,4.57,4.48,12.36-0.35,18.33c-2.7,3.34-4.4,6.74-5.57,10.85c-2,7.01-7.15,11.86-13.43,15.17c-18.55,9.77-37.25,9.74-55.61-0.42
	C14.26,79.03,8.95,72.74,7.87,63.75c-0.19-1.59-1.19-2.3-2.11-3.27c-4.11-4.33-6.63-9.28-5.49-15.45
	C1.33,39.33,5.39,36.02,11.12,36.03z"/>
<path class="st1" d="M49.07,76.85c-6.48-0.31-13.21-2.31-18.11-8.41c-1.35-1.68-2.48-3.55-0.24-5.28c2.13-1.65,3.36,0.04,4.66,1.56
	c7.37,8.65,21.98,8.49,29-0.34c1.36-1.71,2.66-3.49,4.92-1.74c2.26,1.75,0.81,3.65-0.39,5.33C65.14,73.26,57.63,76.78,49.07,76.85z"
	/>
<path class="st2" d="M38.93,52.89c-0.18,2.73-1.74,4.37-4.35,4.4c-2.84,0.02-4.63-1.81-4.51-4.66c0.11-2.6,1.77-4.29,4.54-4.18
	C37.31,48.56,38.76,50.14,38.93,52.89z"/>
<path class="st3" d="M65.11,57.39c-2.47-0.56-4.29-1.88-4.2-4.64c0.09-2.69,1.71-4.33,4.43-4.3c2.91,0.03,4.55,1.77,4.42,4.68
	C69.65,55.92,67.7,57.05,65.11,57.39z"/>
</svg>
