<?xml version="1.0" encoding="utf-8"?>
<!-- Generator: Adobe Illustrator 23.0.0, SVG Export Plug-In . SVG Version: 6.00 Build 0)  -->
<svg version="1.1" id="Layer_1" xmlns="http://www.w3.org/2000/svg" xmlns:xlink="http://www.w3.org/1999/xlink" x="0px" y="0px"
	 viewBox="0 0 200 200" style="enable-background:new 0 0 200 200;" xml:space="preserve">
<style type="text/css">
	.st0{fill:#FFFFFF;}
</style>
<g>
	<path class="st0" d="M34.82,188.78l-0.26-0.09c-0.27-0.1-0.53-0.19-0.8-0.27c-4.98-1.34-8.42-4.45-10.22-9.22
		c-0.21-0.57-0.39-1.15-0.57-1.74c-0.08-0.25-0.15-0.5-0.23-0.75V24.09l0.1-0.27c0.1-0.26,0.19-0.53,0.27-0.8
		c1.34-4.98,4.45-8.42,9.22-10.22c0.57-0.22,1.16-0.39,1.74-0.57c0.25-0.08,0.5-0.15,0.75-0.23h115.04
		c0.54,0.37,1.11,0.72,1.67,1.07c1.25,0.78,2.55,1.58,3.57,2.59c7.27,7.2,14.63,14.56,21.75,21.67
		c6.08,6.08,12.17,12.16,18.27,18.23c2.33,2.31,4.27,4.49,4.4,7.69v113.43l-0.09,0.26c-0.1,0.27-0.19,0.53-0.27,0.8
		c-1.34,4.98-4.45,8.42-9.22,10.22c-0.57,0.21-1.16,0.39-1.74,0.57c-0.25,0.08-0.5,0.15-0.75,0.23H34.82z M73.66,174.84h74.89
		v-52.63H73.66V174.84z M36.69,174.84h23.11l0-12.22c0-13.06,0-26.12,0.01-39.17c0-1.27,0.02-2.51,0.27-3.69
		c1.47-6.97,7.18-11.47,14.53-11.48l5.8,0c6.06,0,12.12,0.01,18.19,0.01c6.06,0,12.13,0.01,18.19,0.01
		c11.94,0,21.59-0.02,30.38-0.07h0.1c4.27,0,8.16,1.57,10.96,4.41c2.78,2.83,4.34,6.78,4.28,10.86c-0.18,11.5-0.14,23.19-0.1,34.5
		c0.01,4.76,0.03,9.52,0.03,14.28v2.56h23.22v-17.3c0-29.65,0-59.3,0.02-88.96c0-1.35-0.39-2.32-1.32-3.24
		c-8.51-8.47-17-16.96-25.48-25.45l-8.77-8.77c-0.26-0.26-0.53-0.51-0.9-0.84l-1.52-1.4l0,14.6c0,8.9,0.01,17.8-0.01,26.71
		c-0.02,8.74-6.09,14.85-14.77,14.86c-5.84,0.01-11.69,0.01-17.53,0.01c-8.68,0-17.36-0.01-26.03-0.02c-0.99,0-2.13-0.02-3.18-0.23
		c-6.93-1.41-11.6-7.21-11.61-14.42c-0.02-9.88-0.01-19.76-0.01-29.64l0-14.74H36.69V174.84z M88.51,71.15h45.22V25.93H88.51V71.15z
		"/>
	<path d="M149.69,12.5c0.52,0.35,1.05,0.67,1.56,0.99c1.29,0.8,2.5,1.55,3.48,2.52c7.27,7.2,14.63,14.56,21.74,21.67
		c5.98,5.98,12.17,12.17,18.27,18.23c2.33,2.32,4.13,4.33,4.25,7.32V176.6c-0.02,0.06-0.04,0.12-0.06,0.18
		c-0.1,0.27-0.2,0.54-0.28,0.84c-1.32,4.88-4.23,8.12-8.92,9.88c-0.55,0.21-1.11,0.38-1.71,0.56c-0.23,0.07-0.46,0.14-0.69,0.21
		H34.9c-0.06-0.02-0.12-0.04-0.18-0.06c-0.27-0.1-0.54-0.2-0.84-0.28c-4.88-1.32-8.11-4.23-9.88-8.92c-0.21-0.55-0.38-1.11-0.56-1.7
		c-0.07-0.23-0.14-0.46-0.21-0.69V24.18c0.02-0.06,0.04-0.12,0.06-0.18c0.1-0.27,0.2-0.54,0.28-0.84c1.32-4.88,4.23-8.11,8.92-9.88
		c0.55-0.21,1.11-0.38,1.7-0.56c0.23-0.07,0.46-0.14,0.69-0.21H149.69 M88,71.65h1h44.22h1v-1V26.43v-1h-1H89h-1v1v44.22V71.65
		 M36.19,175.34h1h22.11h1v-1v-2.12l0-9.89c0-12.96,0-25.92,0.01-38.88c0-1.24,0.02-2.45,0.26-3.59
		c1.42-6.73,6.93-11.08,14.04-11.08l5.72,0c6.08,0,12.17,0.01,18.25,0.01c6.08,0.01,12.17,0.01,18.25,0.01
		c11.91,0,21.55-0.02,30.33-0.07l0.1,0c4.13,0,7.9,1.51,10.61,4.26c2.69,2.73,4.2,6.56,4.14,10.5c-0.18,11.5-0.14,23.2-0.1,34.51
		c0.02,4.76,0.03,9.52,0.03,14.28v2.06v1h1h22.22h1v-1l0-1.05v-0.91l0-14.27c0-29.34,0-59.68,0.02-89.52c0-1.47-0.45-2.58-1.47-3.59
		c-8.62-8.58-17.36-17.33-25.82-25.79l-8.44-8.44c-0.26-0.26-0.54-0.52-0.91-0.85c-0.2-0.18-0.42-0.38-0.68-0.62l-1.68-1.55v2.29
		l0,1.09l0,1.41l0,11.28c0,8.79,0.01,17.59-0.01,26.38c-0.02,8.44-5.88,14.35-14.27,14.36c-5.87,0.01-11.74,0.01-17.6,0.01
		c-8.65,0-17.31-0.01-25.96-0.02c-1.01,0-2.08-0.02-3.08-0.22c-6.69-1.36-11.2-6.96-11.21-13.93c-0.02-9.84-0.01-19.69-0.01-29.53
		l0-12.29v-2.06v-1h-1H37.19h-1v1v147.84V175.34 M73.16,175.34h1h73.89h1v-1v-51.63v-1h-1H74.16h-1v1v51.63V175.34 M150,11.5
		c-38.42,0-76.85,0-115.27,0c-0.86,0.28-1.74,0.51-2.59,0.83c-4.98,1.88-8.14,5.42-9.53,10.56c-0.1,0.38-0.25,0.74-0.38,1.11
		c0,50.92,0,101.85,0,152.77c0.28,0.86,0.51,1.74,0.83,2.59c1.88,4.98,5.42,8.14,10.56,9.53c0.38,0.1,0.74,0.25,1.11,0.38
		c50.92,0,101.85,0,152.77,0c0.86-0.28,1.74-0.51,2.59-0.83c4.99-1.88,8.14-5.42,9.53-10.56c0.1-0.38,0.25-0.74,0.38-1.11
		c0-37.85,0-75.69,0-113.54c-0.14-3.46-2.24-5.74-4.55-8.03c-13.37-13.27-26.63-26.65-40.02-39.9
		C153.89,13.78,151.83,12.76,150,11.5L150,11.5z M89,70.65c0-14.68,0-29.35,0-44.22c14.77,0,29.44,0,44.22,0
		c0,14.73,0,29.41,0,44.22C118.54,70.65,103.83,70.65,89,70.65L89,70.65z M37.19,174.34c0-49.28,0-98.49,0-147.84
		c12.21,0,24.43,0,36.86,0c0,0.71,0,1.38,0,2.06c0,13.94-0.02,27.89,0.01,41.83c0.01,7.5,4.82,13.45,12.01,14.91
		c1.07,0.22,2.18,0.24,3.28,0.24c8.65,0.01,17.31,0.02,25.96,0.02c5.87,0,11.74,0,17.61-0.01c8.92-0.01,15.25-6.38,15.27-15.36
		c0.02-12.55,0.01-25.11,0.01-37.66c0-0.69,0-1.37,0-2.51c0.74,0.69,1.17,1.05,1.56,1.45C161.16,42.88,172.57,54.3,184,65.69
		c0.85,0.85,1.17,1.69,1.17,2.88c-0.03,34.6-0.02,69.2-0.02,103.79c0,0.62,0,1.24,0,1.96c-7.45,0-14.71,0-22.22,0
		c0-0.71,0-1.39,0-2.06c0-16.26-0.18-32.52,0.07-48.77c0.13-8.32-6.14-15.78-15.74-15.78c-0.03,0-0.07,0-0.11,0
		c-10.11,0.06-20.22,0.07-30.33,0.07c-12.17,0-24.34-0.02-36.51-0.02c-1.91,0-3.81,0-5.72,0c-7.58,0.01-13.49,4.68-15.02,11.87
		c-0.26,1.23-0.28,2.53-0.28,3.79c-0.02,16.26-0.01,32.52-0.01,48.77c0,0.68,0,1.35,0,2.12C51.82,174.34,44.56,174.34,37.19,174.34
		L37.19,174.34z M74.16,174.34c0-17.24,0-34.38,0-51.63c24.63,0,49.19,0,73.89,0c0,17.14,0,34.28,0,51.63
		C123.38,174.34,98.82,174.34,74.16,174.34L74.16,174.34z"/>
</g>
</svg>
