<?xml version="1.0" encoding="utf-8"?>
<!-- Generator: Adobe Illustrator 23.0.0, SVG Export Plug-In . SVG Version: 6.00 Build 0)  -->
<svg version="1.1" id="Layer_1" xmlns="http://www.w3.org/2000/svg" xmlns:xlink="http://www.w3.org/1999/xlink" x="0px" y="0px"
	 viewBox="0 0 100 100" style="enable-background:new 0 0 100 100;" xml:space="preserve">
<style type="text/css">
	.st0{fill:#000000;}
</style>
<g>
	<path class="st0" d="M50.87,76.79c-21.17,0-38.39-17.22-38.39-38.39C12.47,17.22,29.7,0,50.87,0c21.17,0,38.4,17.22,38.4,38.4
		C89.26,59.57,72.04,76.79,50.87,76.79z M50.87,10.49c-15.39,0-27.91,12.52-27.91,27.91c0,15.39,12.52,27.91,27.91,27.91
		c15.39,0,27.91-12.52,27.91-27.91C78.78,23.01,66.26,10.49,50.87,10.49z"/>
	
		<rect x="8.52" y="81.36" transform="matrix(0.5221 -0.8529 0.8529 0.5221 -63.8145 59.3123)" class="st0" width="25" height="10.49"/>
</g>
</svg>
