<?xml version="1.0" encoding="utf-8"?>
<!-- Generator: Adobe Illustrator 23.0.0, SVG Export Plug-In . SVG Version: 6.00 Build 0)  -->
<svg version="1.1" id="Layer_1" xmlns="http://www.w3.org/2000/svg" xmlns:xlink="http://www.w3.org/1999/xlink" x="0px" y="0px"
	 viewBox="0 0 200 200" style="enable-background:new 0 0 200 200;" xml:space="preserve">
<style type="text/css">
	.st0{fill:#FFFFFF;}
</style>
<g>
	<path class="st0" d="M92.28,194.01c-3.86,0-6.63-2.37-7.24-6.17c-0.58-3.7-1.22-7.46-1.84-11.11c-0.28-1.67-0.57-3.34-0.85-5.01
		c-0.1-0.58-0.23-0.77-0.24-0.77l0,0c0,0-0.19-0.13-0.74-0.23c-5.82-1-11.72-3.42-17.55-7.2c-0.49-0.32-0.78-0.39-0.86-0.39
		c-0.05,0-0.31,0.07-0.74,0.38c-3.67,2.63-10.41,7.41-12.92,9.18c-1.34,0.95-2.92,1.45-4.56,1.45c-2.13,0-4.12-0.83-5.62-2.34
		l-10.25-10.31c-2.73-2.74-3.08-7.02-0.83-10.18l0.5-0.7c2.44-3.41,6.97-9.75,8.6-12.09c0.4-0.57,0.38-0.64,0.06-1.19
		c-2.67-4.64-5.96-10.88-7.61-17.98c-0.25-1.07-0.41-1.12-1.31-1.27c-5.33-0.85-10.58-1.79-16.4-2.83c-2.79-0.5-5.7-3.13-5.73-6.67
		c-0.04-4.68-0.04-9.36-0.04-14.11l0-1.3c0-3.89,2.78-7.17,6.6-7.81l2.26-0.38c4.37-0.73,10.97-1.83,13.4-2.27
		c0.66-0.12,0.71-0.13,0.88-0.89c1.64-7.33,4.11-13.38,7.55-18.5c0.16-0.23,0.21-0.38,0.22-0.42l0,0c-0.01,0-0.05-0.2-0.31-0.57
		l-1.78-2.52c-2.59-3.65-5.26-7.43-7.92-11.1c-2.22-3.08-1.92-6.78,0.78-9.44c3.27-3.22,6.79-6.73,11.07-11.06
		c1.46-1.47,3.15-2.22,5.03-2.22c1.48,0,2.9,0.48,4.21,1.43c2.85,2.07,5.72,4.11,8.59,6.16c1.58,1.13,3.17,2.25,4.74,3.39
		c0.25,0.18,0.54,0.27,0.82,0.27l0,0c0.2,0,0.39-0.05,0.55-0.14c6.07-3.54,11.99-6.04,18.08-7.62c0.88-0.23,0.96-0.36,1.09-1.16
		c0.64-3.89,1.31-7.78,1.98-11.67l0.66-3.86l0.01-0.08l0.05-0.26c0.69-3.75,3.95-6.46,7.79-6.46l4.65,0c0,0,5,0.01,6.03,0.01
		c1.4,0,2.8-0.01,4.2-0.03l0.15,0c3.76,0,6.57,2.44,7.17,6.22c0.72,4.5,1.68,10.43,2.76,16.4c0.04,0.22,0.24,0.41,0.5,0.48
		c6.86,1.84,13.41,4.54,19.46,8.02c0.16,0.09,0.23,0.1,0.23,0.1c0-0.01,0.16-0.06,0.4-0.24c2.97-2.1,8.21-5.86,11.45-8.19l1.51-1.08
		c1.35-0.97,2.95-1.48,4.61-1.48c2.12,0,4.11,0.83,5.61,2.33l10.26,10.27c2.74,2.75,3.1,7.03,0.86,10.19l-1.82,2.56
		c-2.49,3.5-5.9,8.28-7.33,10.31c-0.26,0.36-0.31,0.57-0.31,0.61c0,0.06,0.1,0.43,0.6,1.05c4.21,5.24,6.7,11.15,7.2,17.1
		c0.08,0.94,0.28,1.37,0.35,1.44l0,0c0,0,0.19,0.14,0.78,0.24c4.09,0.68,8.18,1.37,12.31,2.07l3.28,0.55
		c3.83,0.65,6.61,3.93,6.61,7.81v14.45c0,3.9-2.79,7.19-6.64,7.82l-2.47,0.4c-4.54,0.74-11.39,1.85-13.42,2.26
		c-0.37,0.08-0.5,0.17-0.51,0.18c0,0-0.06,0.09-0.12,0.32c-1.87,6.92-4.41,13.05-7.77,18.74c-0.28,0.48-0.33,0.57,0.18,1.28
		c2.41,3.39,7.07,9.96,9.07,12.78c2.25,3.17,1.88,7.47-0.89,10.21l-10.34,10.24c-1.5,1.48-3.48,2.3-5.58,2.3
		c-1.65,0-3.24-0.51-4.58-1.46c-2.85-2.03-10.41-7.42-12.85-9.12c-0.32-0.22-0.52-0.29-0.57-0.3c0.01,0.01-0.23,0.1-0.6,0.38
		c-4.94,3.75-11.12,6.27-18.89,7.71c-0.05,0.01-0.08,0.02-0.11,0.02c-0.07,0.14-0.17,0.42-0.24,0.88
		c-0.65,4.02-1.33,8.03-2.02,12.08l-0.59,3.45c-0.64,3.8-3.91,6.58-7.76,6.6c-1.38,0.01-3.49,0.02-5.78,0.02
		c-3.23,0.01-6.8,0.03-9.15,0.04H92.28z M99.31,61.6c-10.15,0.14-19.65,4.25-26.76,11.59c-7.19,7.42-11.04,17.21-10.85,27.57
		c0.39,21.06,17.31,37.56,38.54,37.56l0.63,0c20.96-0.29,37.79-17.83,37.52-39.1c-0.27-20.75-17.56-37.63-38.54-37.63L99.31,61.6z"
		/>
	<path d="M107.52,12c0.87,0,1.11,0.31,1.25,1.16c0.88,5.51,1.79,11.02,2.79,16.52c0.46,2.53,2.37,4.54,4.85,5.2
		c6.33,1.7,12.33,4.16,18.02,7.43c1.06,0.61,2.13,0.9,3.2,0.9c1.33,0,2.65-0.46,3.89-1.34c3.51-2.48,10.17-7.27,13-9.3
		c0.34-0.24,0.73-0.36,1.12-0.36c0.5,0,0.99,0.19,1.36,0.56c3.41,3.42,6.81,6.82,10.26,10.27c0.66,0.66,0.76,1.7,0.21,2.47
		c-2.24,3.15-7.33,10.29-9.16,12.88c-2.01,2.85-1.9,5.88,0.51,8.88c3.22,4,5.47,8.72,5.89,13.84c0.36,4.29,2.52,6.5,6.12,7.1
		c5.17,0.86,10.34,1.74,15.57,2.62c0.92,0.16,1.6,0.96,1.6,1.89v14.45c0,0.94-0.68,1.74-1.6,1.89c-4.34,0.71-13.55,2.18-16.11,2.7
		c-2.65,0.54-4.51,2.13-5.24,4.81c-1.64,6.06-3.95,11.84-7.15,17.26c-1.58,2.67-1.33,5.3,0.45,7.81c2.41,3.39,7.07,9.95,9.07,12.77
		c0.54,0.77,0.45,1.81-0.22,2.47c-3.44,3.4-6.85,6.78-10.34,10.24c-0.37,0.37-0.87,0.56-1.36,0.56c-0.39,0-0.77-0.12-1.1-0.35
		c-3.23-2.3-10.47-7.46-12.88-9.15c-1.29-0.9-2.61-1.38-3.97-1.38c-1.39,0-2.82,0.51-4.26,1.6c-4.75,3.6-10.5,5.51-16.37,6.59
		c-3.17,0.59-4.7,2.85-5.18,5.84c-0.83,5.15-1.72,10.28-2.6,15.49c-0.16,0.92-0.95,1.6-1.88,1.6c-3.32,0.02-10.93,0.04-14.94,0.07
		c-0.01,0-0.03,0-0.04,0c-0.82,0-1.16-0.19-1.31-1.11c-0.85-5.4-1.8-10.79-2.7-16.18c-0.54-3.22-2.39-5.32-5.88-5.92
		c-5.5-0.95-10.62-3.29-15.31-6.32c-1.4-0.91-2.77-1.35-4.12-1.35c-1.44,0-2.85,0.51-4.24,1.51c-3.55,2.55-10.09,7.18-12.88,9.15
		c-0.33,0.24-0.72,0.35-1.1,0.35c-0.5,0-0.99-0.19-1.36-0.57l-10.25-10.31c-0.65-0.66-0.75-1.7-0.2-2.46
		c2.27-3.17,7.37-10.31,9.14-12.84c1.72-2.46,1.83-5.03,0.34-7.62c-2.97-5.16-5.61-10.54-6.96-16.34c-0.78-3.35-2.81-5.29-6.21-5.83
		c-5.44-0.87-10.86-1.84-16.29-2.81c-0.31-0.06-0.79-0.53-0.79-0.81c-0.04-5.09-0.04-10.18-0.04-15.36c0-0.94,0.67-1.74,1.6-1.9
		c4-0.67,12.79-2.13,15.73-2.66c3.04-0.55,4.98-2.37,5.67-5.48c1.31-5.83,3.34-11.5,6.67-16.46c1.77-2.63,1.58-5.32-0.18-7.81
		c-3.24-4.56-6.46-9.13-9.73-13.66c-0.5-0.69-0.47-1.06,0.12-1.64c3.73-3.68,7.44-7.39,11.12-11.11c0.28-0.28,0.51-0.44,0.77-0.44
		c0.2,0,0.41,0.09,0.69,0.29c4.44,3.22,8.91,6.37,13.37,9.56c1.28,0.92,2.8,1.39,4.32,1.39c1.23,0,2.47-0.31,3.58-0.96
		c5.22-3.05,10.7-5.47,16.57-6.99c3.1-0.8,4.97-2.77,5.5-5.99c0.86-5.24,1.78-10.48,2.68-15.72c0,0,0-0.01,0-0.01
		c0.16-0.91,0.97-1.57,1.89-1.57c0.78,0,1.56,0,2.33,0c0.77,0,1.55,0,2.32,0c2.01,0,4.02,0.01,6.03,0.01c1.43,0,2.87-0.01,4.3-0.03
		C107.48,12,107.5,12,107.52,12 M100.23,144.33c0.24,0,0.48,0,0.72-0.01c24.22-0.34,43.74-20.65,43.43-45.17
		c-0.31-24.11-20.26-43.55-44.54-43.55c-0.2,0-0.41,0-0.61,0c-24.37,0.33-43.99,20.6-43.53,45.28
		C56.13,124.95,75.8,144.33,100.23,144.33 M107.52,0l-0.25,0c-1.21,0.02-2.51,0.03-4.11,0.03c-1.03,0-2.07,0-3.1-0.01
		c-0.97,0-1.94-0.01-2.91-0.01l-2.32,0l-1.74,0l-0.59,0c-6.78,0-12.53,4.82-13.71,11.48l-0.01,0.04l-0.01,0.08l-0.72,4.16
		c-0.49,2.86-1,5.79-1.49,8.73c-4.71,1.44-9.34,3.38-14.01,5.9c-0.79-0.56-1.58-1.13-2.37-1.69c-2.81-2-5.72-4.07-8.54-6.12
		c-2.94-2.13-5.82-2.57-7.73-2.57c-2.43,0-6.02,0.69-9.29,4c-4.25,4.29-7.75,7.78-11.02,11.01c-4.85,4.78-5.42,11.7-1.42,17.22
		c2.59,3.59,5.21,7.28,7.75,10.86c-2.4,4.21-4.29,8.92-5.72,14.25c-3,0.51-7.08,1.2-10.09,1.7l-2.36,0.4
		c-6.73,1.13-11.61,6.9-11.61,13.73l0,1.27c0,4.87,0,9.47,0.04,14.2c0.05,6.06,4.64,11.44,10.67,12.52
		c4.83,0.87,9.26,1.66,13.67,2.39c1.56,5.34,3.83,10.09,5.97,14.03c-2.02,2.85-4.89,6.87-6.65,9.33l-0.65,0.91
		c-3.96,5.54-3.35,13.07,1.45,17.9l10.25,10.31c2.63,2.65,6.14,4.11,9.87,4.11c2.89,0,5.66-0.88,8.02-2.54
		c2.5-1.76,6.97-4.93,10.45-7.41c4.55,2.65,9.16,4.56,13.77,5.73c0.1,0.61,0.21,1.23,0.31,1.84c0.62,3.62,1.25,7.36,1.83,11.02
		c1.06,6.72,6.35,11.24,13.16,11.24h0.05l0.09,0c2.33-0.02,5.92-0.03,9.16-0.04c2.27-0.01,4.37-0.02,5.74-0.02
		c6.78-0.04,12.51-4.92,13.65-11.6l0.58-3.44c0.5-2.93,1.01-5.94,1.51-8.95c5.52-1.36,10.3-3.31,14.45-5.9
		c3.02,2.14,7.19,5.11,9.54,6.78l0.39,0.28c2.37,1.69,5.16,2.58,8.07,2.58c3.69,0,7.17-1.43,9.8-4.03l6.05-5.99l4.29-4.25
		c4.86-4.81,5.52-12.36,1.57-17.94c-1.59-2.25-4.89-6.89-7.38-10.39c2.33-4.38,4.29-9.1,5.84-14.09c2.99-0.51,7.24-1.2,10.14-1.67
		l2.51-0.41c6.76-1.1,11.67-6.88,11.67-13.74V92.74c0-6.82-4.88-12.59-11.61-13.73l-3.52-0.6c-2.89-0.49-5.76-0.97-8.62-1.45
		c-0.91-5.04-2.98-9.97-6.09-14.52c1.63-2.29,3.7-5.2,5.35-7.51l1.74-2.45c3.95-5.55,3.32-13.08-1.5-17.91l-4.95-4.95l-5.31-5.32
		c-2.63-2.63-6.13-4.09-9.85-4.09c-2.93,0-5.73,0.9-8.11,2.61l-1.27,0.91c-2.42,1.73-6.05,4.34-8.99,6.44
		c-4.61-2.4-9.46-4.39-14.48-5.95c-0.83-4.76-1.57-9.33-2.16-12.97C119.54,4.52,114.28,0,107.52,0L107.52,0z M100.23,132.33
		c-17.92,0-32.21-13.91-32.54-31.67c-0.16-8.75,3.09-17.02,9.16-23.29c5.99-6.18,13.99-9.65,22.53-9.77c0.15,0,0.3,0,0.45,0
		c17.72,0,32.32,14.22,32.54,31.7c0.23,17.96-13.94,32.77-31.59,33.02C100.59,132.33,100.41,132.33,100.23,132.33L100.23,132.33z"/>
</g>
</svg>
