<?xml version="1.0" encoding="utf-8"?>
<!-- Generator: Adobe Illustrator 23.0.0, SVG Export Plug-In . SVG Version: 6.00 Build 0)  -->
<svg version="1.1" id="Layer_1" xmlns="http://www.w3.org/2000/svg" xmlns:xlink="http://www.w3.org/1999/xlink" x="0px" y="0px"
	 viewBox="0 0 100 100" style="enable-background:new 0 0 100 100;" xml:space="preserve">
<style type="text/css">
	.st0{fill:#FFFFFF;}
</style>
<g>
	<path class="st0" d="M63,88H24c-6.6,0-12-5.4-12-12V36c0-6.6,5.4-12,12-12h39c6.6,0,12,5.4,12,12v40C75,82.6,69.6,88,63,88z"/>
</g>
<g>
	<path d="M22.1,96.2l-0.79-0.11c-0.51-0.07-1.01-0.13-1.51-0.24c-7.72-1.64-12.9-6.52-14.99-14.11c-0.22-0.81-0.33-1.57-0.43-2.24
		c-0.03-0.24-0.07-0.47-0.11-0.71l-0.06-0.33V33.58l0.06-0.34c0.05-0.27,0.09-0.54,0.13-0.82c0.11-0.73,0.23-1.56,0.47-2.43
		c1.56-5.73,5.11-9.93,10.54-12.47c2.42-1.13,5.03-1.71,7.78-1.71l5.36,0c1.03,0,2.07,0,3.1,0.01c3.36,0.02,6.18,2.33,6.87,5.63
		c0.67,3.22-1.04,6.5-4.07,7.78c-0.89,0.38-1.88,0.58-2.86,0.59c-1.33,0.01-2.66,0.01-3.99,0.01c0,0-3.64,0-4.45,0
		c-2.32,0.01-4.43,1.81-4.81,4.09c-0.07,0.42-0.1,0.83-0.11,1.22l0,2.8c-0.01,12.98-0.02,25.96,0,38.94c0,2.29,0.88,3.73,2.91,4.81
		c0.61,0.32,1.35,0.48,2.26,0.48l23.74,0c6.08,0,12.16,0,18.24-0.01c2.53,0,4.55-1.58,5.02-3.93c0.16-0.77,0.16-1.76,0.16-2.81
		l0-0.77c0.02-2.52,0.01-5.04,0.01-7.55l0-3.87c0-3.86,3.12-7.03,6.95-7.05c3.91,0,7.06,3.15,7.06,7.03l0.01,3.53
		c0.01,3.49,0.02,7.1-0.02,10.66c-0.1,8.93-6.56,16.68-15.35,18.43c-0.55,0.11-1.11,0.18-1.67,0.25l-0.86,0.12H22.1z"/>
	<path class="st0" d="M28.62,19.81c1,0,2.01,0,3.01,0.01c1.49,0.01,2.67,1,2.98,2.45c0.27,1.31-0.45,2.74-1.72,3.28
		c-0.41,0.17-0.89,0.27-1.34,0.27c-1.31,0.01-2.62,0.01-3.92,0.01c-0.68,0-1.36,0-2.04,0c-0.82,0-1.64,0-2.46,0
		c-4.26,0.02-8.05,3.24-8.74,7.44c-0.1,0.62-0.16,1.25-0.16,1.87c-0.01,13.92-0.02,27.83,0,41.75c0.01,3.76,1.7,6.57,5.05,8.34
		c1.28,0.68,2.68,0.94,4.13,0.94c7.8,0,15.6,0,23.4,0c6.19,0,12.38,0,18.58-0.01c4.42,0,8.08-2.88,8.94-7.13
		c0.28-1.41,0.22-2.89,0.24-4.35c0.03-3.82,0.01-7.64,0.01-11.45c0-1.69,1.32-3.04,2.97-3.05c0.01,0,0.01,0,0.02,0
		c1.67,0,3.01,1.34,3.02,3.04c0.01,4.71,0.04,9.42-0.01,14.13c-0.08,7.12-5.15,13.17-12.13,14.55c-0.67,0.13-1.36,0.2-2.04,0.3
		c-14.67,0-29.34,0-44.01,0c-0.59-0.09-1.18-0.14-1.76-0.26c-6.27-1.33-10.27-5.08-11.97-11.26c-0.23-0.83-0.3-1.71-0.45-2.56
		c0-14.73,0-29.46,0-44.19c0.17-0.96,0.26-1.94,0.51-2.88c1.25-4.59,4.08-7.89,8.38-9.9c1.92-0.9,3.96-1.33,6.08-1.33
		c0.01,0,0.01,0,0.02,0c0.32,0,0.64,0,0.96,0C25.66,19.81,27.14,19.81,28.62,19.81 M28.62,11.81l-2.23,0l-2.22,0l-0.95,0
		c-3.36,0-6.55,0.7-9.5,2.08c-6.45,3.02-10.85,8.23-12.7,15.04c-0.3,1.1-0.45,2.09-0.57,2.89c-0.04,0.24-0.07,0.48-0.11,0.72
		l-0.12,0.68v0.69v44.19v0.68l0.11,0.67c0.03,0.2,0.06,0.4,0.09,0.6c0.11,0.75,0.24,1.68,0.53,2.74c2.48,9,8.88,15.02,18.02,16.96
		c0.71,0.15,1.34,0.23,1.84,0.3c0.14,0.02,0.28,0.04,0.42,0.06l0.58,0.08h0.58h44.01h0.57l0.56-0.08c0.18-0.03,0.35-0.05,0.53-0.07
		c0.54-0.07,1.21-0.15,1.94-0.3c10.63-2.11,18.44-11.49,18.57-22.3c0.04-3.61,0.03-7.25,0.02-10.77c0-1.16-0.01-2.31-0.01-3.47
		c-0.01-6.08-4.95-11.03-11.02-11.03h-0.03l-0.06,0c-6,0.04-10.9,5-10.9,11.05c0,1.31,0,2.62,0,3.92c0,2.49,0.01,4.99-0.01,7.48
		c0,0.27,0,0.54,0,0.81c0,0.76,0,1.63-0.08,2.01c-0.1,0.48-0.47,0.72-1.1,0.72c-6.19,0.01-12.38,0.01-18.57,0.01l-16.61,0l-6.79,0
		c-0.25,0-0.39-0.03-0.43-0.04c-0.69-0.37-0.75-0.47-0.75-1.26c-0.02-12.91-0.01-26.03,0-38.73l0-3c0-0.17,0.02-0.37,0.05-0.57
		c0.06-0.36,0.52-0.75,0.88-0.75c0.81,0,1.61,0,2.42,0l1.02,0l1.02,0c1.33,0,2.66,0,4-0.01c1.5-0.01,3.02-0.33,4.39-0.91
		c4.79-2.03,7.49-7.19,6.43-12.28c-1.08-5.16-5.5-8.79-10.77-8.81C30.66,11.81,29.64,11.81,28.62,11.81L28.62,11.81z"/>
</g>
<g>
	<path d="M33.92,76.84c-1.65,0-3.27-0.72-4.32-1.92c-0.69-0.79-1.26-1.6-1.71-2.42c-2.1-3.83-3.51-7.91-4.19-12.13
		c-1.04-6.44-0.39-12.67,1.92-18.5c2.13-5.36,5.51-9.94,10.06-13.63c4.88-3.95,10.57-6.57,17.41-8.01c2.91-0.62,5.98-0.99,9.14-1.11
		c0-2.49,0-4.99,0.01-7.48c0-0.76,0.08-1.55,0.23-2.41c0.4-2.28,1.85-4.02,3.98-4.77l0.65-0.23h1.75l0.49,0.13
		c1.98,0.51,3.34,1.7,4.19,2.55l2.74,2.74c5.49,5.49,10.97,10.98,16.47,16.46c0.99,0.98,2.83,2.82,3.22,5.7L96,32.09v1.48
		l-0.04,0.28c-0.41,2.83-2.21,4.63-3.18,5.59c-3.58,3.57-7.16,7.14-10.73,10.72c-2.82,2.82-5.65,5.65-8.47,8.47
		c-0.77,0.77-1.52,1.37-2.3,1.82c-1.04,0.61-2.12,0.91-3.21,0.91c-2.73,0-4.96-1.95-5.57-4.84c-0.16-0.77-0.24-1.56-0.25-2.35
		c-0.01-2.66-0.01-5.33-0.01-7.99c-2.73,0.12-5.03,0.4-7.17,0.86c-4.79,1.03-8.38,2.66-11.28,5.14c-3.5,2.99-5.45,6.71-5.94,11.34
		c-0.17,1.63-0.03,3.19,0.44,4.77c0.04,0.14,0.1,0.27,0.16,0.4c0.06,0.15,0.26,0.65,0.26,0.65c0.92,2.47,0.12,5.26-1.91,6.64
		C35.98,76.55,34.98,76.84,33.92,76.84z"/>
	<path class="st0" d="M68.34,8.24c0.95,0.25,1.68,0.83,2.36,1.51c6.4,6.41,12.8,12.82,19.22,19.21c0.98,0.98,1.89,1.97,2.08,3.41
		c0,0.31,0,0.61,0,0.92c-0.2,1.41-1.08,2.37-2.05,3.33C83.54,43,77.16,49.41,70.75,55.8c-0.45,0.45-0.95,0.88-1.5,1.2
		c-0.42,0.25-0.82,0.37-1.19,0.37c-0.81,0-1.43-0.59-1.65-1.66c-0.11-0.51-0.16-1.03-0.16-1.55c-0.01-3.82-0.01-7.64-0.01-11.46
		c0-0.17,0-0.33,0-0.57c-0.57,0-1.13-0.01-1.68-0.01c-0.32,0-0.65,0-0.97,0.01c-3.14,0.08-6.27,0.34-9.35,1
		c-4.8,1.03-9.27,2.78-13.04,6.01c-4.3,3.67-6.72,8.34-7.32,13.96c-0.23,2.15-0.03,4.25,0.58,6.32c0.12,0.39,0.29,0.77,0.44,1.15
		c0.02,0.06,0.05,0.11,0.07,0.17c0.27,0.73,0.09,1.6-0.41,1.94c-0.16,0.11-0.39,0.16-0.63,0.16c-0.46,0-0.99-0.19-1.3-0.55
		c-0.46-0.53-0.88-1.1-1.22-1.71c-1.86-3.4-3.13-7.01-3.75-10.84c-0.9-5.61-0.41-11.09,1.69-16.39c1.89-4.77,4.87-8.77,8.86-12
		c4.62-3.74,9.93-5.99,15.71-7.21c3.5-0.74,7.04-1.06,10.6-1.06c0.5,0,1,0.01,1.49,0.02c0,0,0,0,0.01,0c0.06,0,0.12-0.02,0.21-0.03
		c0-0.19,0-0.37,0-0.55c0-3.62-0.01-7.24,0.01-10.86c0-0.58,0.07-1.16,0.17-1.73c0.14-0.8,0.56-1.41,1.37-1.69
		C67.97,8.24,68.15,8.24,68.34,8.24 M69.36,0.24h-1.02h-0.55h-1.37l-1.29,0.45c-3.47,1.22-5.94,4.15-6.59,7.84
		c-0.19,1.07-0.29,2.11-0.29,3.1c-0.01,1.26-0.01,2.51-0.01,3.77c-2.04,0.21-4.04,0.51-5.97,0.92c-7.37,1.56-13.79,4.52-19.1,8.82
		c-5.09,4.12-8.88,9.26-11.26,15.26c-2.58,6.51-3.31,13.45-2.15,20.61c0.75,4.67,2.31,9.19,4.63,13.41c0.59,1.07,1.33,2.13,2.2,3.13
		c1.83,2.09,4.5,3.29,7.33,3.29c1.87,0,3.64-0.54,5.13-1.55c3.53-2.4,4.96-7.17,3.41-11.34c-0.04-0.11-0.08-0.22-0.13-0.32
		c-0.06-0.15-0.12-0.31-0.19-0.46c-0.02-0.04-0.04-0.09-0.05-0.13c-0.29-1.03-0.37-2.04-0.26-3.1c0.38-3.62,1.83-6.4,4.56-8.73
		c2.38-2.03,5.4-3.39,9.52-4.27c0.74-0.16,1.52-0.29,2.33-0.41c0,1.21,0,2.43,0.01,3.64c0,1.07,0.11,2.13,0.33,3.16
		c1,4.8,4.81,8.03,9.49,8.03c1.79,0,3.6-0.51,5.23-1.46c1.07-0.63,2.09-1.43,3.11-2.44c2.84-2.83,5.67-5.66,8.5-8.5
		c3.56-3.57,7.13-7.13,10.7-10.69c1.21-1.2,3.72-3.7,4.32-7.85l0.08-0.57v-0.58v-0.92v-0.54l-0.07-0.54
		c-0.58-4.22-3.14-6.77-4.37-7.99c-5.55-5.53-11.09-11.07-16.63-16.62l-2.57-2.58c-0.68-0.68-2.75-2.75-6.01-3.6L69.36,0.24
		L69.36,0.24z"/>
</g>
</svg>
