<?xml version="1.0" encoding="utf-8"?>
<!-- Generator: Adobe Illustrator 23.0.0, SVG Export Plug-In . SVG Version: 6.00 Build 0)  -->
<svg version="1.1" id="Layer_1" xmlns="http://www.w3.org/2000/svg" xmlns:xlink="http://www.w3.org/1999/xlink" x="0px" y="0px"
	 viewBox="0 0 200 200" style="enable-background:new 0 0 200 200;" xml:space="preserve">
<style type="text/css">
	.st0{fill:#000000;}
</style>
<g>
	<path class="st0" d="M186.97,130.47c-16.04-14.56-39.61-13.77-55.36,1.58c-1.24,1.21-2.04,1.55-3.76,0.68
		c-15.49-7.83-31.04-15.55-46.61-23.2c-1.68-0.83-2.07-1.72-1.71-3.48c0.82-3.95,0.79-7.97,0.02-11.92
		c-0.38-1.92,0.11-2.79,1.86-3.65c15.58-7.65,31.12-15.39,46.64-23.16c1.35-0.68,2.1-0.76,3.33,0.45
		c10.34,10.24,22.83,14.18,37.06,11.34c20.16-4.02,33.51-22.84,31.46-43.72C197.96,15.66,180.64,0.16,160.16,0
		c-1.12,0.07-2.45,0.15-3.78,0.24c-22.42,1.57-39.7,23.79-35.62,45.91c0.32,1.75-0.12,2.49-1.64,3.25
		c-15.56,7.69-31.1,15.43-46.61,23.25c-1.61,0.81-2.51,0.73-3.83-0.6c-6.85-6.96-15.23-10.96-24.94-11.87
		C19.29,57.89-1.44,78.01,0.31,102.48c1.19,16.73,9.82,28.65,25.33,34.68c15.98,6.21,30.52,2.74,42.88-9.2
		c1.34-1.29,2.22-1.44,3.83-0.63c15.09,7.63,30.2,15.23,45.38,22.68c2.37,1.16,3.82,2.13,2.8,5.04c-0.48,1.38-0.41,2.99-0.41,4.49
		c-0.12,26.62,24.6,45.99,50.3,39.03c15.33-4.15,25.2-14.42,28.64-29.91C202.32,153.87,198.29,140.75,186.97,130.47z M160.43,20.44
		c10.97,0.06,19.78,8.93,19.73,19.87c-0.05,10.86-9.14,19.8-19.99,19.67c-10.95-0.14-19.56-8.98-19.53-20.08
		C140.68,29.11,149.55,20.38,160.43,20.44z M39.94,119.81c-10.76-0.04-19.63-9-19.56-19.75c0.07-11.07,8.97-19.79,20.14-19.73
		c10.55,0.05,19.4,9,19.44,19.64C59.99,111.01,51.08,119.85,39.94,119.81z M160.37,179.85c-10.85,0.17-19.88-8.71-19.97-19.64
		c-0.09-10.89,8.77-19.85,19.7-19.91c10.86-0.06,19.85,8.9,19.85,19.78C179.95,170.9,171.25,179.68,160.37,179.85z"/>
</g>
</svg>
