<?xml version="1.0" encoding="utf-8"?>
<!-- Generator: Adobe Illustrator 23.0.0, SVG Export Plug-In . SVG Version: 6.00 Build 0)  -->
<svg version="1.1" id="Layer_1" xmlns="http://www.w3.org/2000/svg" xmlns:xlink="http://www.w3.org/1999/xlink" x="0px" y="0px"
	 viewBox="0 0 100 100" style="enable-background:new 0 0 100 100;" xml:space="preserve">
<style type="text/css">
	.st0{fill:#000000; fill-opacity: 75%;}
</style>
<path class="st0" d="M38.07,63.84c0-5.01-0.22-10.03,0.08-15.03c0.21-3.57-1.17-4.24-4.44-4.23c-13.04,0.03-13.89-1.14-12.07-14.52
	c0.19-1.36,0.47-2.17,1.91-2.56c9.8-2.63,12.53-10.44,13.91-19.19C38.77,0.01,38.75,0,46.95,0c10.1,0,10.1,0,10.1,10.31
	c0,4.66,0.15,9.34-0.06,13.99c-0.12,2.81,0.96,3.77,3.6,3.46c0.85-0.1,1.73-0.08,2.59-0.01c3.73,0.3,9.22-1.73,10.81,0.84
	c2.38,3.84,0.62,9.36,0.75,14.16c0.06,2.13-1.57,1.88-2.92,1.88c-3.46,0.02-6.94,0.27-10.36-0.06c-3.83-0.37-4.61,1.21-4.49,4.69
	c0.26,7.59,0.2,15.2,0.11,22.8c-0.11,8.88,4.69,12.87,13.74,10.49c3.48-0.92,4.84-0.34,6.08,2.9c1.18,3.1,3.15,5.58-0.87,8.36
	c-8.03,5.55-16.43,8.46-25.71,4c-9.08-4.36-12.71-12.15-12.29-22.07C38.21,71.79,38.07,67.81,38.07,63.84z"/>
</svg>
