<?xml version="1.0" encoding="utf-8"?>
<!-- Generator: Adobe Illustrator 23.0.0, SVG Export Plug-In . SVG Version: 6.00 Build 0)  -->
<svg version="1.1" id="Layer_1" xmlns="http://www.w3.org/2000/svg" xmlns:xlink="http://www.w3.org/1999/xlink" x="0px" y="0px"
	 viewBox="0 0 100 100" style="enable-background:new 0 0 100 100;" xml:space="preserve">
<style type="text/css">
	.st0{fill:#000000; fill-opacity: 75%;}
</style>
<path class="st0" d="M0,82.69c16.09-2.04,19.27-3.05,26.5-8.55C17.95,72.2,11.66,67.88,8.35,59.4c2.53-0.2,4.83-0.38,7.12-0.56
	C6.97,54.38,0.83,48.61,0.51,38.07c2.79,1.1,5.2,1.99,8.62,1.94C1.42,31.81-1.27,23.1,4.1,11.46c2.54,3.05,4.32,5.83,6.71,7.92
	c9.53,8.33,20.45,13.65,33.23,14.96c3.02,0.31,3.59,0.05,3.1-3.14c-1.4-9.18,3.08-17.69,10.88-21.7c7.98-4.1,17.34-3.25,23.64,3.03
	c3.12,3.1,5.39,2.59,8.33,0.5c1.48-1.05,3.06-1.98,5.18-2.57c-2.09,3.64-4.18,7.28-6.72,11.7c4.02-1.1,7.22-1.98,11.54-3.17
	c-3,3.23-5.21,5.81-7.64,8.15c-2.01,1.93-2.93,3.97-3.05,6.86c-1.27,29.78-19.93,51.8-48.75,56.97C26.3,93.54,12.76,90.8,0,82.69z"
	/>
</svg>
