<?xml version="1.0" encoding="utf-8"?>
<!-- Generator: Adobe Illustrator 23.0.0, SVG Export Plug-In . SVG Version: 6.00 Build 0)  -->
<svg version="1.1" id="Layer_1" xmlns="http://www.w3.org/2000/svg" xmlns:xlink="http://www.w3.org/1999/xlink" x="0px" y="0px"
	 viewBox="0 0 100 100" style="enable-background:new 0 0 100 100;" xml:space="preserve">
<style type="text/css">
	.st0{opacity:0.5;}
	.st1{fill:#FFFFFF;}
	.st2{fill:#F1F1F1;}
</style>
<g class="st0">
	<path class="st1" d="M10,87.25c-2.44,0-4.69-0.91-6.34-2.57c-1.7-1.71-2.63-4.04-2.61-6.57c0.13-19.96,0.13-40.15,0-59.99
		c-0.02-2.64,0.91-5.03,2.61-6.75c1.7-1.71,4.05-2.62,6.79-2.62c6.25,0.03,12.45,0.03,18.64,0.03c4.2,0,44.72-0.02,44.72-0.02
		c5.31,0,10.62,0,15.92,0.02c4.02,0.01,6.76,1.52,8.36,4.62c0.56,1.08,0.83,2.11,0.83,3.15c0,7.69,0,15.39,0,23.08
		c0,13.26,0,26.53-0.02,39.79c-0.01,4.18-3.6,7.72-7.84,7.73c-6.19,0.01-12.38,0.02-18.56,0.02l-22.25-0.01L50,87.18
		c-3.8,0-7.59-0.01-11.39-0.02c-3.79-0.01-7.59-0.02-11.38-0.02c-6.66,0-12.08,0.04-17.07,0.12L10,87.25z M10.6,15.9
		c-2.23,0-2.6,0.36-2.6,2.55C7.99,38.2,7.99,57.94,8,77.68c0,2.21,0.39,2.6,2.59,2.6h79.08c2.06,0,2.37-0.32,2.37-2.42V18.33
		c0-2.18-0.26-2.43-2.51-2.43l-59.23,0L10.6,15.9z"/>
	<path d="M10.45,9c0.02,0,0.03,0,0.05,0c6.21,0.03,12.41,0.03,18.62,0.03c8.39,0,16.77-0.01,25.16-0.01
		c6.51,0,13.03-0.01,19.54-0.01c5.3,0,10.61,0,15.91,0.02c3.49,0.01,6.43,1.17,8.14,4.49c0.49,0.95,0.8,1.94,0.8,3.03
		c-0.01,20.96,0.01,41.91-0.02,62.87c-0.01,4.04-3.51,7.47-7.59,7.48c-6.1,0.01-12.21,0.02-18.31,0.02
		c-7.58,0-15.16-0.01-22.74-0.01c0,0,0,0.01,0,0.01c-7.59,0-15.17-0.05-22.76-0.05c-5.69,0-11.39,0.03-17.08,0.12
		c-0.05,0-0.1,0-0.16,0c-5.1,0-8.74-4-8.7-8.89c0.13-20,0.14-40,0-59.99C1.26,13.27,4.56,9,10.45,9 M46.15,15.65
		c-5.17,0-10.33,0-15.5,0c-6.68,0-13.37,0-20.05,0c-2.37,0-2.85,0.45-2.85,2.8c-0.01,19.74-0.01,39.49,0,59.23
		c0,2.35,0.52,2.85,2.84,2.85c13.18,0,26.36,0,39.54,0s26.36,0,39.54,0c2.21,0,2.62-0.42,2.62-2.67c0-19.84,0-39.69,0-59.53
		c0-2.31-0.38-2.68-2.76-2.68c-6.32,0-12.63,0-18.95,0c-6.86,0-13.73,0-20.59,0C48.71,15.65,47.43,15.65,46.15,15.65 M10.45,8.5
		L10.45,8.5c-2.8,0-5.21,0.93-6.96,2.69c-1.75,1.76-2.71,4.22-2.69,6.93c0.14,19.85,0.14,40.03,0,59.99
		c-0.02,2.59,0.93,4.99,2.68,6.75c1.7,1.71,4.01,2.65,6.52,2.65l0.16,0c4.99-0.08,10.42-0.12,17.08-0.12
		c3.79,0,7.59,0.01,11.38,0.02c3.79,0.01,7.59,0.02,11.38,0.02h0.5v-0.01l10.87,0l11.37,0c6.1,0,12.21,0,18.31-0.02
		c4.38-0.01,8.08-3.67,8.09-7.98c0.02-13.23,0.02-26.45,0.02-39.68c0-7.73,0-15.46,0-23.19c0-1.08-0.28-2.15-0.86-3.26
		c-1.65-3.19-4.46-4.75-8.58-4.76c-5.3-0.01-10.61-0.02-15.91-0.02l-9.77,0l-9.77,0c-4.19,0-8.39,0-12.58,0.01
		c-4.19,0-8.39,0.01-12.58,0.01c-7.25,0-13.17-0.01-18.62-0.03L10.45,8.5L10.45,8.5L10.45,8.5z M46.15,16.15l3.83,0l8.53,0l12.07,0
		l18.95,0c2.11,0,2.26,0.14,2.26,2.18c0,19.84,0,39.69,0,59.53c0,1.97-0.2,2.17-2.12,2.17l-39.54,0l-39.54,0
		c-2.05,0-2.34-0.29-2.34-2.35c-0.01-19.74-0.01-39.49,0-59.23c0-2.06,0.24-2.3,2.35-2.3l20.05,0l7.75,0L46.15,16.15L46.15,16.15z"
		/>
</g>
<g class="st0">
	<path class="st2" d="M16.1,74.42c-0.59,0-1.24-0.05-1.62-0.46c-0.3-0.32-0.42-0.8-0.38-1.56c0.11-2.11,0.07-4.26,0.03-6.34
		l-0.01-0.46c-0.02-0.98,0.25-1.67,0.92-2.33c5.81-5.75,10.27-10.22,14.45-14.47c0.44-0.45,0.77-0.64,1.12-0.64
		c0.44,0,0.8,0.32,1.12,0.66c0.89,0.94,1.81,1.85,2.74,2.76c1.04,1.02,2.11,2.08,3.12,3.17c0.45,0.49,0.77,0.7,1.05,0.7
		c0.28,0,0.61-0.2,1.06-0.66c4.26-4.31,8.55-8.6,12.84-12.89c3.53-3.53,7.06-7.07,10.58-10.61c0.55-0.55,0.97-0.94,1.5-0.94
		c0.44,0,0.88,0.27,1.46,0.89c2.26,2.41,4.68,4.76,7.01,7.03c1.26,1.23,2.52,2.46,3.77,3.7c1.56,1.55,3.1,3.13,4.64,4.7
		c1.31,1.34,2.62,2.67,3.93,4c0.51,0.51,0.73,1.1,0.73,1.95l-0.01,3.09c-0.01,5.54-0.03,11.27,0.03,16.91
		c0.01,0.65-0.12,1.08-0.41,1.37c-0.38,0.39-0.99,0.42-1.58,0.42c-6.52-0.01-13.01-0.02-19.5-0.02l-30.22,0
		c-6.11,0-12.22,0.01-18.32,0.04H16.1z"/>
	<path class="st1" d="M64.61,30.61c0.35,0,0.74,0.24,1.28,0.81c3.47,3.7,7.19,7.16,10.78,10.74c2.88,2.88,5.7,5.81,8.57,8.69
		c0.51,0.52,0.66,1.08,0.66,1.77c-0.01,6.67-0.04,13.33,0.02,20c0.01,1.39-0.64,1.54-1.74,1.54c-0.01,0-0.02,0-0.03,0
		c-6.4-0.01-12.79-0.02-19.19-0.02c-4.97,0-9.93,0-14.9,0c-5.26,0-10.51,0-15.77,0c-6.06,0-12.11,0.01-18.17,0.03
		c-0.01,0-0.02,0-0.04,0c-1.35,0-1.82-0.35-1.75-1.76c0.12-2.27,0.06-4.54,0.02-6.82c-0.02-0.86,0.21-1.52,0.84-2.14
		c4.84-4.8,9.67-9.61,14.45-14.47c0.37-0.38,0.66-0.56,0.94-0.56c0.29,0,0.58,0.2,0.94,0.59c1.91,2.02,3.96,3.9,5.85,5.93
		c0.47,0.51,0.85,0.78,1.24,0.78c0.37,0,0.75-0.24,1.24-0.74c7.78-7.86,15.63-15.65,23.42-23.5C63.82,30.95,64.19,30.61,64.61,30.61
		 M64.61,30.11c-0.62,0-1.08,0.42-1.67,1.02c-3.51,3.54-7.04,7.07-10.57,10.6c-4.22,4.22-8.58,8.59-12.85,12.9
		c-0.39,0.4-0.68,0.59-0.89,0.59c-0.2,0-0.48-0.2-0.87-0.62c-1.01-1.09-2.09-2.15-3.13-3.18c-0.91-0.89-1.84-1.82-2.73-2.75
		c-0.35-0.37-0.77-0.74-1.31-0.74c-0.53,0-0.95,0.36-1.3,0.71c-4.16,4.22-8.75,8.82-14.45,14.46c-0.7,0.7-1.01,1.47-0.99,2.51
		l0.01,0.48c0.04,2.07,0.08,4.21-0.03,6.3c-0.04,0.84,0.09,1.38,0.45,1.75c0.45,0.47,1.16,0.54,1.8,0.54
		c6.65-0.03,13.22-0.03,18.2-0.03l7.88,0l7.88,0l7.45,0l7.45,0c6.4,0,12.79,0,19.18,0.02c0.67,0,1.34-0.04,1.79-0.49
		c0.33-0.34,0.49-0.83,0.48-1.55c-0.05-5.62-0.04-11.35-0.03-16.88l0.01-3.11c0-0.61-0.09-1.41-0.8-2.12
		c-1.32-1.32-2.62-2.66-3.93-3.99c-1.52-1.55-3.08-3.15-4.64-4.71c-1.24-1.24-2.5-2.47-3.76-3.7c-2.33-2.27-4.75-4.62-7.01-7.03
		C65.62,30.4,65.13,30.11,64.61,30.11L64.61,30.11z"/>
</g>
<g class="st0">
	<path class="st1" d="M16.1,74.42c-0.59,0-1.24-0.05-1.62-0.46c-0.3-0.32-0.42-0.8-0.38-1.56c0.11-2.11,0.07-4.26,0.03-6.34
		l-0.01-0.46c-0.02-0.98,0.25-1.67,0.92-2.33c5.81-5.75,10.27-10.22,14.45-14.47c0.44-0.45,0.77-0.64,1.12-0.64
		c0.44,0,0.8,0.32,1.12,0.66c0.89,0.94,1.81,1.85,2.74,2.76c1.04,1.02,2.11,2.08,3.12,3.17c0.45,0.49,0.77,0.7,1.05,0.7
		c0.28,0,0.61-0.2,1.06-0.66c4.26-4.31,8.55-8.6,12.84-12.89c3.53-3.53,7.06-7.07,10.58-10.61c0.55-0.55,0.97-0.94,1.5-0.94
		c0.44,0,0.88,0.27,1.46,0.89c2.26,2.41,4.68,4.76,7.01,7.03c1.26,1.23,2.52,2.46,3.77,3.7c1.56,1.55,3.1,3.13,4.64,4.7
		c1.31,1.34,2.62,2.67,3.93,4c0.51,0.51,0.73,1.1,0.73,1.95l-0.01,3.09c-0.01,5.54-0.03,11.27,0.03,16.91
		c0.01,0.65-0.12,1.08-0.41,1.37c-0.38,0.39-0.99,0.42-1.58,0.42c-6.52-0.01-13.01-0.02-19.5-0.02l-30.22,0
		c-6.11,0-12.22,0.01-18.32,0.04H16.1z"/>
	<path d="M64.61,30.61c0.35,0,0.74,0.24,1.28,0.81c3.47,3.7,7.19,7.16,10.78,10.74c2.88,2.88,5.7,5.81,8.57,8.69
		c0.51,0.52,0.66,1.08,0.66,1.77c-0.01,6.67-0.04,13.33,0.02,20c0.01,1.39-0.64,1.54-1.74,1.54c-0.01,0-0.02,0-0.03,0
		c-6.4-0.01-12.79-0.02-19.19-0.02c-4.97,0-9.93,0-14.9,0c-5.26,0-10.51,0-15.77,0c-6.06,0-12.11,0.01-18.17,0.03
		c-0.01,0-0.02,0-0.04,0c-1.35,0-1.82-0.35-1.75-1.76c0.12-2.27,0.06-4.54,0.02-6.82c-0.02-0.86,0.21-1.52,0.84-2.14
		c4.84-4.8,9.67-9.61,14.45-14.47c0.37-0.38,0.66-0.56,0.94-0.56c0.29,0,0.58,0.2,0.94,0.59c1.91,2.02,3.96,3.9,5.85,5.93
		c0.47,0.51,0.85,0.78,1.24,0.78c0.37,0,0.75-0.24,1.24-0.74c7.78-7.86,15.63-15.65,23.42-23.5C63.82,30.95,64.19,30.61,64.61,30.61
		 M64.61,30.11c-0.62,0-1.08,0.42-1.67,1.02c-3.51,3.54-7.04,7.07-10.57,10.6c-4.22,4.22-8.58,8.59-12.85,12.9
		c-0.39,0.4-0.68,0.59-0.89,0.59c-0.2,0-0.48-0.2-0.87-0.62c-1.01-1.09-2.09-2.15-3.13-3.18c-0.91-0.89-1.84-1.82-2.73-2.75
		c-0.35-0.37-0.77-0.74-1.31-0.74c-0.53,0-0.95,0.36-1.3,0.71c-4.16,4.22-8.75,8.82-14.45,14.46c-0.7,0.7-1.01,1.47-0.99,2.51
		l0.01,0.48c0.04,2.07,0.08,4.21-0.03,6.3c-0.04,0.84,0.09,1.38,0.45,1.75c0.45,0.47,1.16,0.54,1.8,0.54
		c6.65-0.03,13.22-0.03,18.2-0.03l7.88,0l7.88,0l7.45,0l7.45,0c6.4,0,12.79,0,19.18,0.02c0.67,0,1.34-0.04,1.79-0.49
		c0.33-0.34,0.49-0.83,0.48-1.55c-0.05-5.62-0.04-11.35-0.03-16.88l0.01-3.11c0-0.61-0.09-1.41-0.8-2.12
		c-1.32-1.32-2.62-2.66-3.93-3.99c-1.52-1.55-3.08-3.15-4.64-4.71c-1.24-1.24-2.5-2.47-3.76-3.7c-2.33-2.27-4.75-4.62-7.01-7.03
		C65.62,30.4,65.13,30.11,64.61,30.11L64.61,30.11z"/>
</g>
<g class="st0">
	<path class="st2" d="M24.67,41.73c-0.22,0-0.45-0.01-0.68-0.03c-0.16,0.02-0.36,0.02-0.57,0.02h0c-2.28,0-4.62-1.05-6.42-2.89
		c-1.91-1.96-2.97-4.53-2.91-7.05c0.14-5.59,4.51-9.98,9.96-9.99c5.51,0,9.89,4.44,9.99,10.11c0.04,2.48-1.03,5.02-2.93,6.96
		C29.31,40.71,27.02,41.73,24.67,41.73z"/>
	<path class="st1" d="M24.09,22.05c5.37,0,9.63,4.41,9.72,9.87c0.08,4.8-4.16,9.56-9.13,9.56c-0.22,0-0.44-0.01-0.66-0.03
		c-0.2,0.02-0.39,0.02-0.59,0.02c-4.82,0-9.2-4.71-9.08-9.69c0.13-5.36,4.38-9.73,9.71-9.74C24.08,22.05,24.08,22.05,24.09,22.05
		 M24.09,21.55l-0.02,0c-5.59,0.01-10.08,4.5-10.22,10.23c-0.06,2.59,1.02,5.22,2.98,7.23c1.84,1.89,4.24,2.97,6.59,2.97
		c0.19,0,0.39-0.01,0.59-0.02c0.22,0.02,0.44,0.03,0.66,0.03c2.41,0,4.77-1.04,6.63-2.94c1.95-1.98,3.05-4.58,3-7.13
		C34.21,26.1,29.72,21.55,24.09,21.55L24.09,21.55z"/>
</g>
<g class="st0">
	<path class="st1" d="M24.67,41.73c-0.22,0-0.45-0.01-0.68-0.03c-0.16,0.02-0.36,0.02-0.57,0.02h0c-2.28,0-4.62-1.05-6.42-2.89
		c-1.91-1.96-2.97-4.53-2.91-7.05c0.14-5.59,4.51-9.98,9.96-9.99c5.51,0,9.89,4.44,9.99,10.11c0.04,2.48-1.03,5.02-2.93,6.96
		C29.31,40.71,27.02,41.73,24.67,41.73z"/>
	<path d="M24.09,22.05c5.37,0,9.63,4.41,9.72,9.87c0.08,4.8-4.16,9.56-9.13,9.56c-0.22,0-0.44-0.01-0.66-0.03
		c-0.2,0.02-0.39,0.02-0.59,0.02c-4.82,0-9.2-4.71-9.08-9.69c0.13-5.36,4.38-9.73,9.71-9.74C24.08,22.05,24.08,22.05,24.09,22.05
		 M24.09,21.55l-0.02,0c-5.59,0.01-10.08,4.5-10.22,10.23c-0.06,2.59,1.02,5.22,2.98,7.23c1.84,1.89,4.24,2.97,6.59,2.97
		c0.19,0,0.39-0.01,0.59-0.02c0.22,0.02,0.44,0.03,0.66,0.03c2.41,0,4.77-1.04,6.63-2.94c1.95-1.98,3.05-4.58,3-7.13
		C34.21,26.1,29.72,21.55,24.09,21.55L24.09,21.55z"/>
</g>
</svg>
