<?xml version="1.0" encoding="utf-8"?>
<!-- Generator: Adobe Illustrator 23.0.0, SVG Export Plug-In . SVG Version: 6.00 Build 0)  -->
<svg version="1.1" id="Layer_1" xmlns="http://www.w3.org/2000/svg" xmlns:xlink="http://www.w3.org/1999/xlink" x="0px" y="0px"
	 viewBox="0 0 100 100" style="enable-background:new 0 0 100 100;" xml:space="preserve">
<style type="text/css">
	.st0{fill:#000000; fill-opacity: 75%;}
</style>
<path class="st0" d="M58.42,36.66c0,3.6-0.02,7.19,0.01,10.79c0.01,1.22-0.05,2.64,1.22,3.25c1.32,0.63,2.42-0.31,3.39-1.12
	c3.47-2.91,5.94-6.64,8.33-10.41c2.83-4.47,5.26-9.17,7.35-14.04c0.83-1.93,2.24-3.02,4.38-3.03c3.91-0.02,7.82-0.06,11.73-0.01
	c2.49,0.03,3.43,1.27,2.91,3.68c-0.65,2.98-2.18,5.58-3.65,8.18c-3.19,5.64-6.8,11.01-10.49,16.34c-2.3,3.32-2.28,4.34,0.62,7.24
	c3.91,3.92,7.75,7.89,11.17,12.25c1.34,1.71,2.63,3.46,3.62,5.4c0.23,0.46,0.45,0.92,0.63,1.4c1.02,2.76-0.18,4.75-3.09,4.83
	c-4.03,0.11-8.06,0.07-12.09,0.02c-1.82-0.02-3.2-1.08-4.39-2.33c-2.46-2.57-4.81-5.24-7.3-7.77c-2.41-2.45-4.95-4.77-7.94-6.53
	c-1.32-0.77-2.7-1.27-4.28-1.12c-1.09,0.11-1.73,0.65-1.97,1.72c-0.14,0.62-0.18,1.25-0.18,1.88c0.01,3.36,0.02,6.72,0,10.08
	c-0.01,2.19-0.69,3.11-2.82,3.61c-4.05,0.96-8.09,0.57-12.08-0.38c-9.28-2.2-16.72-7.42-22.69-14.63
	C12.14,55.47,5.41,43.83,1.18,30.82c-0.6-1.84-1.13-3.7-1.17-5.66c-0.04-1.81,0.82-2.93,2.61-3c4.38-0.18,8.77-0.2,13.15,0.01
	c1.72,0.08,2.65,1.32,3.24,2.77c1.17,2.89,2.19,5.84,3.41,8.7c2.72,6.37,5.9,12.49,10.2,17.96c1.05,1.34,2.18,2.62,3.68,3.48
	c1.72,0.99,2.89,0.46,3.24-1.49c0.14-0.81,0.13-1.65,0.14-2.48c0.01-5.02,0-10.04,0.01-15.05c0.01-3.31-0.88-6.31-3.05-8.87
	c-0.23-0.27-0.44-0.56-0.65-0.85c-0.6-0.86-0.85-1.78-0.38-2.78c0.5-1.06,1.42-1.46,2.51-1.47c5.81-0.01,11.62-0.03,17.42,0.02
	c1.92,0.02,2.81,1.02,2.84,3.17c0.05,3.79,0.01,7.59,0.01,11.38C58.4,36.66,58.41,36.66,58.42,36.66z"/>
</svg>
